solid ADS Analoger Stepper Driver
facet normal -0.0 -1.0 -0.0
  outer loop
    vertex 17.42073397110547 43.83802934054395 0.8000000000000002
    vertex 7.42073397110547 43.83802934054395 0.0
    vertex 17.42073397110547 43.83802934054395 0.0
  endloop
endfacet
facet normal -0.0 -1.0 -0.0
  outer loop
    vertex 7.42073397110547 43.83802934054395 0.0
    vertex 17.42073397110547 43.83802934054395 0.8000000000000002
    vertex 7.42073397110547 43.83802934054395 0.8000000000000002
  endloop
endfacet
facet normal -1.0 0.0 0.0
  outer loop
    vertex 7.42073397110547 53.83802934054395 0.8000000000000002
    vertex 7.42073397110547 43.83802934054395 0.0
    vertex 7.42073397110547 43.83802934054395 0.8000000000000002
  endloop
endfacet
facet normal -1.0 0.0 0.0
  outer loop
    vertex 7.42073397110547 43.83802934054395 0.0
    vertex 7.42073397110547 53.83802934054395 0.8000000000000002
    vertex 7.42073397110547 53.83802934054395 0.0
  endloop
endfacet
facet normal 1.0 0.0 0.0
  outer loop
    vertex 17.42073397110547 53.83802934054395 0.0
    vertex 17.42073397110547 43.83802934054395 0.8000000000000002
    vertex 17.42073397110547 43.83802934054395 0.0
  endloop
endfacet
facet normal 1.0 0.0 0.0
  outer loop
    vertex 17.42073397110547 43.83802934054395 0.8000000000000002
    vertex 17.42073397110547 53.83802934054395 0.0
    vertex 17.42073397110547 53.83802934054395 0.8000000000000002
  endloop
endfacet
facet normal 0.0 0.0 -1.0
  outer loop
    vertex 7.42073397110547 53.83802934054395 0.0
    vertex 11.381503486564144 49.43802934054395 -4.229949723821846e-15
    vertex 7.42073397110547 43.83802934054395 0.0
  endloop
endfacet
facet normal 0.0 0.0 -1.0
  outer loop
    vertex 11.381503486564144 49.43802934054395 -4.229949723821846e-15
    vertex 7.42073397110547 53.83802934054395 0.0
    vertex 11.572205833681613 49.68655747796781 -4.229949723821846e-15
  endloop
endfacet
facet normal 0.0 0.0 -1.0
  outer loop
    vertex 11.572205833681613 49.68655747796781 -4.229949723821846e-15
    vertex 7.42073397110547 53.83802934054395 0.0
    vertex 11.820733971105469 49.877259825085275 -4.229949723821846e-15
  endloop
endfacet
facet normal 0.0 0.0 -1.0
  outer loop
    vertex 11.820733971105469 49.877259825085275 -4.229949723821846e-15
    vertex 7.42073397110547 53.83802934054395 0.0
    vertex 17.42073397110547 53.83802934054395 0.0
  endloop
endfacet
facet normal 0.0 0.0 -1.0
  outer loop
    vertex 7.42073397110547 43.83802934054395 0.0
    vertex 11.381503486564144 49.43802934054395 -4.229949723821846e-15
    vertex 11.261622979558588 49.148612194666974 -4.229949723821846e-15
  endloop
endfacet
facet normal 0.0 0.0 -1.0
  outer loop
    vertex 7.42073397110547 43.83802934054395 0.0
    vertex 11.261622979558588 49.148612194666974 -4.229949723821846e-15
    vertex 11.220733971105469 48.83802934054395 -4.229949723821846e-15
  endloop
endfacet
facet normal 0.0 0.0 -1.0
  outer loop
    vertex 11.820733971105469 49.877259825085275 -4.229949723821846e-15
    vertex 17.42073397110547 53.83802934054395 0.0
    vertex 12.110151116982443 49.99714033209083 -4.229949723821846e-15
  endloop
endfacet
facet normal 0.0 0.0 -1.0
  outer loop
    vertex 12.110151116982443 49.99714033209083 -4.229949723821846e-15
    vertex 17.42073397110547 53.83802934054395 0.0
    vertex 12.42073397110547 50.03802934054394 -4.229949723821846e-15
  endloop
endfacet
facet normal 0.0 0.0 -1.0
  outer loop
    vertex 12.42073397110547 50.03802934054394 -4.229949723821846e-15
    vertex 17.42073397110547 53.83802934054395 0.0
    vertex 12.731316825228493 49.99714033209083 -4.229949723821846e-15
  endloop
endfacet
facet normal 0.0 0.0 -1.0
  outer loop
    vertex 12.731316825228493 49.99714033209083 -4.229949723821846e-15
    vertex 17.42073397110547 53.83802934054395 0.0
    vertex 13.020733971105468 49.877259825085275 -4.229949723821846e-15
  endloop
endfacet
facet normal 0.0 0.0 -1.0
  outer loop
    vertex 13.020733971105468 49.877259825085275 -4.229949723821846e-15
    vertex 17.42073397110547 53.83802934054395 0.0
    vertex 13.269262108529327 49.68655747796781 -4.229949723821846e-15
  endloop
endfacet
facet normal 0.0 0.0 -1.0
  outer loop
    vertex 13.269262108529327 49.68655747796781 -4.229949723821846e-15
    vertex 17.42073397110547 53.83802934054395 0.0
    vertex 13.459964455646796 49.43802934054395 -4.229949723821846e-15
  endloop
endfacet
facet normal 0.0 0.0 -1.0
  outer loop
    vertex 13.459964455646796 49.43802934054395 -4.229949723821846e-15
    vertex 17.42073397110547 53.83802934054395 0.0
    vertex 13.579844962652352 49.148612194666974 -4.229949723821846e-15
  endloop
endfacet
facet normal 0.0 0.0 -1.0
  outer loop
    vertex 13.579844962652352 49.148612194666974 -4.229949723821846e-15
    vertex 17.42073397110547 53.83802934054395 0.0
    vertex 13.62073397110547 48.83802934054395 -4.229949723821846e-15
  endloop
endfacet
facet normal 0.0 0.0 -1.0
  outer loop
    vertex 7.42073397110547 43.83802934054395 0.0
    vertex 11.82073397110547 47.79879885600263 -4.229949723821846e-15
    vertex 17.42073397110547 43.83802934054395 0.0
  endloop
endfacet
facet normal 0.0 0.0 -1.0
  outer loop
    vertex 11.82073397110547 47.79879885600263 -4.229949723821846e-15
    vertex 7.42073397110547 43.83802934054395 0.0
    vertex 11.572205833681613 47.98950120312009 -4.229949723821846e-15
  endloop
endfacet
facet normal 0.0 0.0 -1.0
  outer loop
    vertex 11.572205833681613 47.98950120312009 -4.229949723821846e-15
    vertex 7.42073397110547 43.83802934054395 0.0
    vertex 11.381503486564144 48.23802934054395 -4.229949723821846e-15
  endloop
endfacet
facet normal 0.0 0.0 -1.0
  outer loop
    vertex 11.381503486564144 48.23802934054395 -4.229949723821846e-15
    vertex 7.42073397110547 43.83802934054395 0.0
    vertex 11.261622979558588 48.52744648642092 -4.229949723821846e-15
  endloop
endfacet
facet normal 0.0 0.0 -1.0
  outer loop
    vertex 11.261622979558588 48.52744648642092 -4.229949723821846e-15
    vertex 7.42073397110547 43.83802934054395 0.0
    vertex 11.220733971105469 48.83802934054395 -4.229949723821846e-15
  endloop
endfacet
facet normal 0.0 0.0 -1.0
  outer loop
    vertex 17.42073397110547 43.83802934054395 0.0
    vertex 11.82073397110547 47.79879885600263 -4.229949723821846e-15
    vertex 12.110151116982445 47.678918348997065 -4.229949723821846e-15
  endloop
endfacet
facet normal 0.0 0.0 -1.0
  outer loop
    vertex 17.42073397110547 43.83802934054395 0.0
    vertex 12.110151116982445 47.678918348997065 -4.229949723821846e-15
    vertex 12.42073397110547 47.63802934054395 -4.229949723821846e-15
  endloop
endfacet
facet normal 0.0 0.0 -1.0
  outer loop
    vertex 17.42073397110547 43.83802934054395 0.0
    vertex 12.42073397110547 47.63802934054395 -4.229949723821846e-15
    vertex 12.731316825228493 47.678918348997065 -4.229949723821846e-15
  endloop
endfacet
facet normal 0.0 0.0 -1.0
  outer loop
    vertex 17.42073397110547 43.83802934054395 0.0
    vertex 12.731316825228493 47.678918348997065 -4.229949723821846e-15
    vertex 13.020733971105468 47.79879885600263 -4.229949723821846e-15
  endloop
endfacet
facet normal 0.0 0.0 -1.0
  outer loop
    vertex 17.42073397110547 43.83802934054395 0.0
    vertex 13.020733971105468 47.79879885600263 -4.229949723821846e-15
    vertex 13.269262108529325 47.98950120312009 -4.229949723821846e-15
  endloop
endfacet
facet normal 0.0 0.0 -1.0
  outer loop
    vertex 17.42073397110547 43.83802934054395 0.0
    vertex 13.269262108529325 47.98950120312009 -4.229949723821846e-15
    vertex 13.459964455646794 48.23802934054395 -4.229949723821846e-15
  endloop
endfacet
facet normal 0.0 0.0 -1.0
  outer loop
    vertex 17.42073397110547 43.83802934054395 0.0
    vertex 13.459964455646794 48.23802934054395 -4.229949723821846e-15
    vertex 13.579844962652352 48.52744648642093 -4.229949723821846e-15
  endloop
endfacet
facet normal 0.0 0.0 -1.0
  outer loop
    vertex 17.42073397110547 43.83802934054395 0.0
    vertex 13.579844962652352 48.52744648642093 -4.229949723821846e-15
    vertex 13.62073397110547 48.83802934054395 -4.229949723821846e-15
  endloop
endfacet
facet normal 0.0 0.0 -1.0
  outer loop
    vertex 17.42073397110547 43.83802934054395 0.0
    vertex 13.62073397110547 48.83802934054395 -4.229949723821846e-15
    vertex 17.42073397110547 53.83802934054395 0.0
  endloop
endfacet
facet normal 0.0 0.0 1.0
  outer loop
    vertex 7.42073397110547 43.83802934054395 0.8000000000000002
    vertex 9.522956492238267 48.061572205236374 0.8000000000000002
    vertex 7.42073397110547 53.83802934054395 0.8000000000000002
  endloop
endfacet
facet normal 0.0 0.0 1.0
  outer loop
    vertex 9.522956492238267 48.061572205236374 0.8000000000000002
    vertex 7.42073397110547 43.83802934054395 0.8000000000000002
    vertex 9.822657759752161 47.33802934054393 0.8000000000000002
  endloop
endfacet
facet normal 0.0 0.0 1.0
  outer loop
    vertex 9.822657759752161 47.33802934054393 0.8000000000000002
    vertex 7.42073397110547 43.83802934054395 0.8000000000000002
    vertex 10.299413627545833 46.7167089969843 0.8000000000000002
  endloop
endfacet
facet normal 0.0 0.0 1.0
  outer loop
    vertex 10.299413627545833 46.7167089969843 0.8000000000000002
    vertex 7.42073397110547 43.83802934054395 0.8000000000000002
    vertex 10.920733971105479 46.239953129190624 0.8000000000000002
  endloop
endfacet
facet normal 0.0 0.0 1.0
  outer loop
    vertex 10.920733971105479 46.239953129190624 0.8000000000000002
    vertex 7.42073397110547 43.83802934054395 0.8000000000000002
    vertex 11.644276835797916 45.94025186167674 0.8000000000000002
  endloop
endfacet
facet normal 0.0 0.0 1.0
  outer loop
    vertex 11.644276835797916 45.94025186167674 0.8000000000000002
    vertex 7.42073397110547 43.83802934054395 0.8000000000000002
    vertex 17.42073397110547 43.83802934054395 0.8000000000000002
  endloop
endfacet
facet normal 0.0 0.0 1.0
  outer loop
    vertex 7.42073397110547 53.83802934054395 0.8000000000000002
    vertex 9.522956492238267 48.061572205236374 0.8000000000000002
    vertex 9.42073397110547 48.83802934054394 0.8000000000000002
  endloop
endfacet
facet normal 0.0 0.0 1.0
  outer loop
    vertex 11.644276835797916 45.94025186167674 0.8000000000000002
    vertex 17.42073397110547 43.83802934054395 0.8000000000000002
    vertex 12.420733971105477 45.83802934054395 0.8000000000000002
  endloop
endfacet
facet normal 0.0 0.0 1.0
  outer loop
    vertex 12.420733971105477 45.83802934054395 0.8000000000000002
    vertex 17.42073397110547 43.83802934054395 0.8000000000000002
    vertex 13.19719110641304 45.94025186167674 0.8000000000000002
  endloop
endfacet
facet normal 0.0 0.0 1.0
  outer loop
    vertex 13.19719110641304 45.94025186167674 0.8000000000000002
    vertex 17.42073397110547 43.83802934054395 0.8000000000000002
    vertex 13.920733971105475 46.23995312919063 0.8000000000000002
  endloop
endfacet
facet normal 0.0 0.0 1.0
  outer loop
    vertex 13.920733971105475 46.23995312919063 0.8000000000000002
    vertex 17.42073397110547 43.83802934054395 0.8000000000000002
    vertex 14.542054314665117 46.71670899698431 0.8000000000000002
  endloop
endfacet
facet normal 0.0 0.0 1.0
  outer loop
    vertex 14.542054314665117 46.71670899698431 0.8000000000000002
    vertex 17.42073397110547 43.83802934054395 0.8000000000000002
    vertex 15.018810182458786 47.338029340543955 0.8000000000000002
  endloop
endfacet
facet normal 0.0 0.0 1.0
  outer loop
    vertex 15.018810182458786 47.338029340543955 0.8000000000000002
    vertex 17.42073397110547 43.83802934054395 0.8000000000000002
    vertex 15.318511449972677 48.061572205236395 0.8000000000000002
  endloop
endfacet
facet normal 0.0 0.0 1.0
  outer loop
    vertex 15.318511449972677 48.061572205236395 0.8000000000000002
    vertex 17.42073397110547 43.83802934054395 0.8000000000000002
    vertex 15.42073397110547 48.83802934054396 0.8000000000000002
  endloop
endfacet
facet normal 0.0 0.0 1.0
  outer loop
    vertex 7.42073397110547 53.83802934054395 0.8000000000000002
    vertex 11.644276835797898 51.73580681941115 0.8000000000000002
    vertex 17.42073397110547 53.83802934054395 0.8000000000000002
  endloop
endfacet
facet normal 0.0 0.0 1.0
  outer loop
    vertex 11.644276835797898 51.73580681941115 0.8000000000000002
    vertex 7.42073397110547 53.83802934054395 0.8000000000000002
    vertex 10.920733971105463 51.43610555189726 0.8000000000000002
  endloop
endfacet
facet normal 0.0 0.0 1.0
  outer loop
    vertex 10.920733971105463 51.43610555189726 0.8000000000000002
    vertex 7.42073397110547 53.83802934054395 0.8000000000000002
    vertex 10.29941362754582 50.959349684103586 0.8000000000000002
  endloop
endfacet
facet normal 0.0 0.0 1.0
  outer loop
    vertex 10.29941362754582 50.959349684103586 0.8000000000000002
    vertex 7.42073397110547 53.83802934054395 0.8000000000000002
    vertex 9.822657759752149 50.33802934054394 0.8000000000000002
  endloop
endfacet
facet normal 0.0 0.0 1.0
  outer loop
    vertex 9.822657759752149 50.33802934054394 0.8000000000000002
    vertex 7.42073397110547 53.83802934054395 0.8000000000000002
    vertex 9.522956492238261 49.61448647585151 0.8000000000000002
  endloop
endfacet
facet normal 0.0 0.0 1.0
  outer loop
    vertex 9.522956492238261 49.61448647585151 0.8000000000000002
    vertex 7.42073397110547 53.83802934054395 0.8000000000000002
    vertex 9.42073397110547 48.83802934054394 0.8000000000000002
  endloop
endfacet
facet normal 0.0 0.0 1.0
  outer loop
    vertex 17.42073397110547 53.83802934054395 0.8000000000000002
    vertex 11.644276835797898 51.73580681941115 0.8000000000000002
    vertex 12.420733971105461 51.83802934054394 0.8000000000000002
  endloop
endfacet
facet normal 0.0 0.0 1.0
  outer loop
    vertex 17.42073397110547 53.83802934054395 0.8000000000000002
    vertex 12.420733971105461 51.83802934054394 0.8000000000000002
    vertex 13.19719110641302 51.73580681941115 0.8000000000000002
  endloop
endfacet
facet normal 0.0 0.0 1.0
  outer loop
    vertex 17.42073397110547 53.83802934054395 0.8000000000000002
    vertex 13.19719110641302 51.73580681941115 0.8000000000000002
    vertex 13.920733971105463 51.43610555189727 0.8000000000000002
  endloop
endfacet
facet normal 0.0 0.0 1.0
  outer loop
    vertex 17.42073397110547 53.83802934054395 0.8000000000000002
    vertex 13.920733971105463 51.43610555189727 0.8000000000000002
    vertex 14.542054314665108 50.9593496841036 0.8000000000000002
  endloop
endfacet
facet normal 0.0 0.0 1.0
  outer loop
    vertex 17.42073397110547 53.83802934054395 0.8000000000000002
    vertex 14.542054314665108 50.9593496841036 0.8000000000000002
    vertex 15.01881018245878 50.338029340543955 0.8000000000000002
  endloop
endfacet
facet normal 0.0 0.0 1.0
  outer loop
    vertex 17.42073397110547 53.83802934054395 0.8000000000000002
    vertex 15.01881018245878 50.338029340543955 0.8000000000000002
    vertex 15.318511449972672 49.614486475851514 0.8000000000000002
  endloop
endfacet
facet normal 0.0 0.0 1.0
  outer loop
    vertex 17.42073397110547 53.83802934054395 0.8000000000000002
    vertex 15.318511449972672 49.614486475851514 0.8000000000000002
    vertex 15.42073397110547 48.83802934054396 0.8000000000000002
  endloop
endfacet
facet normal 0.0 0.0 1.0
  outer loop
    vertex 17.42073397110547 53.83802934054395 0.8000000000000002
    vertex 15.42073397110547 48.83802934054396 0.8000000000000002
    vertex 17.42073397110547 43.83802934054395 0.8000000000000002
  endloop
endfacet
facet normal 0.0 1.0 0.0
  outer loop
    vertex 7.42073397110547 53.83802934054395 0.8000000000000002
    vertex 17.42073397110547 53.83802934054395 0.0
    vertex 7.42073397110547 53.83802934054395 0.0
  endloop
endfacet
facet normal 0.0 1.0 0.0
  outer loop
    vertex 17.42073397110547 53.83802934054395 0.0
    vertex 7.42073397110547 53.83802934054395 0.8000000000000002
    vertex 17.42073397110547 53.83802934054395 0.8000000000000002
  endloop
endfacet
facet normal 0.9623251297054223 -0.12669250681683264 0.240581282426354
  outer loop
    vertex 11.220733971105469 48.83802934054395 -4.229949723821846e-15
    vertex 11.068437814300774 49.20037600368748 0.8000000000000002
    vertex 11.02073397110547 48.83802934054394 0.8000000000000002
  endloop
endfacet
facet normal 0.9623251297054223 -0.12669250681683264 0.240581282426354
  outer loop
    vertex 11.068437814300774 49.20037600368748 0.8000000000000002
    vertex 11.220733971105469 48.83802934054395 -4.229949723821846e-15
    vertex 11.261622979558588 49.148612194666974 -4.229949723821846e-15
  endloop
endfacet
facet normal 0.9623251297054218 0.126692506816836 0.24058128242635363
  outer loop
    vertex 11.261622979558588 48.52744648642092 -4.229949723821846e-15
    vertex 11.02073397110547 48.83802934054394 0.8000000000000002
    vertex 11.068437814300776 48.47568267740042 0.8000000000000002
  endloop
endfacet
facet normal 0.9623251297054218 0.126692506816836 0.24058128242635363
  outer loop
    vertex 11.02073397110547 48.83802934054394 0.8000000000000002
    vertex 11.261622979558588 48.52744648642092 -4.229949723821846e-15
    vertex 11.220733971105469 48.83802934054395 -4.229949723821846e-15
  endloop
endfacet
facet normal 0.8967442624334659 0.37144363548020315 0.2405812824263546
  outer loop
    vertex 11.381503486564144 48.23802934054395 -4.229949723821846e-15
    vertex 11.068437814300776 48.47568267740042 0.8000000000000002
    vertex 11.208298405807255 48.138029340543945 0.8000000000000002
  endloop
endfacet
facet normal 0.8967442624334659 0.37144363548020315 0.2405812824263546
  outer loop
    vertex 11.068437814300776 48.47568267740042 0.8000000000000002
    vertex 11.381503486564144 48.23802934054395 -4.229949723821846e-15
    vertex 11.261622979558588 48.52744648642092 -4.229949723821846e-15
  endloop
endfacet
facet normal 0.7700517556166326 0.5908814942252226 0.2405812824263558
  outer loop
    vertex 11.572205833681613 47.98950120312009 -4.229949723821846e-15
    vertex 11.208298405807255 48.138029340543945 0.8000000000000002
    vertex 11.430784477444304 47.84807984688278 0.8000000000000002
  endloop
endfacet
facet normal 0.7700517556166326 0.5908814942252226 0.2405812824263558
  outer loop
    vertex 11.208298405807255 48.138029340543945 0.8000000000000002
    vertex 11.572205833681613 47.98950120312009 -4.229949723821846e-15
    vertex 11.381503486564144 48.23802934054395 -4.229949723821846e-15
  endloop
endfacet
facet normal 0.5908814942252207 0.7700517556166344 0.2405812824263551
  outer loop
    vertex 11.430784477444304 47.84807984688278 0.8000000000000002
    vertex 11.82073397110547 47.79879885600263 -4.229949723821846e-15
    vertex 11.572205833681613 47.98950120312009 -4.229949723821846e-15
  endloop
endfacet
facet normal 0.5908814942252207 0.7700517556166344 0.2405812824263551
  outer loop
    vertex 11.82073397110547 47.79879885600263 -4.229949723821846e-15
    vertex 11.430784477444304 47.84807984688278 0.8000000000000002
    vertex 11.72073397110547 47.62559377524573 0.8000000000000002
  endloop
endfacet
facet normal 0.3714436354802018 0.8967442624334657 0.24058128242635693
  outer loop
    vertex 11.72073397110547 47.62559377524573 0.8000000000000002
    vertex 12.110151116982445 47.678918348997065 -4.229949723821846e-15
    vertex 11.82073397110547 47.79879885600263 -4.229949723821846e-15
  endloop
endfacet
facet normal 0.3714436354802018 0.8967442624334657 0.24058128242635693
  outer loop
    vertex 12.110151116982445 47.678918348997065 -4.229949723821846e-15
    vertex 11.72073397110547 47.62559377524573 0.8000000000000002
    vertex 12.058387307961942 47.48573318373925 0.8000000000000002
  endloop
endfacet
facet normal 0.12669250681682429 0.9623251297054232 0.24058128242635501
  outer loop
    vertex 12.058387307961942 47.48573318373925 0.8000000000000002
    vertex 12.42073397110547 47.63802934054395 -4.229949723821846e-15
    vertex 12.110151116982445 47.678918348997065 -4.229949723821846e-15
  endloop
endfacet
facet normal 0.12669250681682429 0.9623251297054232 0.24058128242635501
  outer loop
    vertex 12.42073397110547 47.63802934054395 -4.229949723821846e-15
    vertex 12.058387307961942 47.48573318373925 0.8000000000000002
    vertex 12.42073397110547 47.43802934054395 0.8000000000000002
  endloop
endfacet
facet normal -0.12669250681682429 0.9623251297054232 0.24058128242635507
  outer loop
    vertex 12.42073397110547 47.43802934054395 0.8000000000000002
    vertex 12.731316825228493 47.678918348997065 -4.229949723821846e-15
    vertex 12.42073397110547 47.63802934054395 -4.229949723821846e-15
  endloop
endfacet
facet normal -0.12669250681682429 0.9623251297054232 0.24058128242635507
  outer loop
    vertex 12.731316825228493 47.678918348997065 -4.229949723821846e-15
    vertex 12.42073397110547 47.43802934054395 0.8000000000000002
    vertex 12.783080634248996 47.48573318373925 0.8000000000000002
  endloop
endfacet
facet normal -0.37144363548020176 0.8967442624334657 0.24058128242635693
  outer loop
    vertex 12.783080634248996 47.48573318373925 0.8000000000000002
    vertex 13.020733971105468 47.79879885600263 -4.229949723821846e-15
    vertex 12.731316825228493 47.678918348997065 -4.229949723821846e-15
  endloop
endfacet
facet normal -0.37144363548020176 0.8967442624334657 0.24058128242635693
  outer loop
    vertex 13.020733971105468 47.79879885600263 -4.229949723821846e-15
    vertex 12.783080634248996 47.48573318373925 0.8000000000000002
    vertex 13.120733971105468 47.62559377524573 0.8000000000000002
  endloop
endfacet
facet normal -0.5908814942252205 0.7700517556166342 0.24058128242635607
  outer loop
    vertex 13.120733971105468 47.62559377524573 0.8000000000000002
    vertex 13.269262108529325 47.98950120312009 -4.229949723821846e-15
    vertex 13.020733971105468 47.79879885600263 -4.229949723821846e-15
  endloop
endfacet
facet normal -0.5908814942252205 0.7700517556166342 0.24058128242635607
  outer loop
    vertex 13.269262108529325 47.98950120312009 -4.229949723821846e-15
    vertex 13.120733971105468 47.62559377524573 0.8000000000000002
    vertex 13.410683464766636 47.84807984688278 0.8000000000000002
  endloop
endfacet
facet normal -0.7700517556166362 0.5908814942252184 0.24058128242635507
  outer loop
    vertex 13.633169536403683 48.13802934054395 0.8000000000000002
    vertex 13.269262108529325 47.98950120312009 -4.229949723821846e-15
    vertex 13.410683464766636 47.84807984688278 0.8000000000000002
  endloop
endfacet
facet normal -0.7700517556166362 0.5908814942252184 0.24058128242635507
  outer loop
    vertex 13.269262108529325 47.98950120312009 -4.229949723821846e-15
    vertex 13.633169536403683 48.13802934054395 0.8000000000000002
    vertex 13.459964455646794 48.23802934054395 -4.229949723821846e-15
  endloop
endfacet
facet normal -0.8967442624334657 0.3714436354802036 0.2405812824263546
  outer loop
    vertex 13.773030127910165 48.47568267740042 0.8000000000000002
    vertex 13.459964455646794 48.23802934054395 -4.229949723821846e-15
    vertex 13.633169536403683 48.13802934054395 0.8000000000000002
  endloop
endfacet
facet normal -0.8967442624334657 0.3714436354802036 0.2405812824263546
  outer loop
    vertex 13.459964455646794 48.23802934054395 -4.229949723821846e-15
    vertex 13.773030127910165 48.47568267740042 0.8000000000000002
    vertex 13.579844962652352 48.52744648642093 -4.229949723821846e-15
  endloop
endfacet
facet normal -0.9623251297054218 0.1266925068168359 0.24058128242635363
  outer loop
    vertex 13.82073397110547 48.83802934054395 0.8000000000000002
    vertex 13.579844962652352 48.52744648642093 -4.229949723821846e-15
    vertex 13.773030127910165 48.47568267740042 0.8000000000000002
  endloop
endfacet
facet normal -0.9623251297054218 0.1266925068168359 0.24058128242635363
  outer loop
    vertex 13.579844962652352 48.52744648642093 -4.229949723821846e-15
    vertex 13.82073397110547 48.83802934054395 0.8000000000000002
    vertex 13.62073397110547 48.83802934054395 -4.229949723821846e-15
  endloop
endfacet
facet normal 0.8967442624334663 -0.37144363548020193 0.24058128242635535
  outer loop
    vertex 11.381503486564144 49.43802934054395 -4.229949723821846e-15
    vertex 11.068437814300774 49.20037600368748 0.8000000000000002
    vertex 11.261622979558588 49.148612194666974 -4.229949723821846e-15
  endloop
endfacet
facet normal 0.8967442624334663 -0.37144363548020193 0.24058128242635535
  outer loop
    vertex 11.068437814300774 49.20037600368748 0.8000000000000002
    vertex 11.381503486564144 49.43802934054395 -4.229949723821846e-15
    vertex 11.208298405807255 49.53802934054395 0.8000000000000002
  endloop
endfacet
facet normal 0.7700517556166353 -0.5908814942252198 0.2405812824263544
  outer loop
    vertex 11.572205833681613 49.68655747796781 -4.229949723821846e-15
    vertex 11.208298405807255 49.53802934054395 0.8000000000000002
    vertex 11.381503486564144 49.43802934054395 -4.229949723821846e-15
  endloop
endfacet
facet normal 0.7700517556166353 -0.5908814942252198 0.2405812824263544
  outer loop
    vertex 11.208298405807255 49.53802934054395 0.8000000000000002
    vertex 11.572205833681613 49.68655747796781 -4.229949723821846e-15
    vertex 11.430784477444302 49.82797883420511 0.8000000000000002
  endloop
endfacet
facet normal 0.5908814942252216 -0.7700517556166337 0.24058128242635562
  outer loop
    vertex 11.720733971105469 50.05046490584216 0.8000000000000002
    vertex 11.572205833681613 49.68655747796781 -4.229949723821846e-15
    vertex 11.820733971105469 49.877259825085275 -4.229949723821846e-15
  endloop
endfacet
facet normal 0.5908814942252216 -0.7700517556166337 0.24058128242635562
  outer loop
    vertex 11.572205833681613 49.68655747796781 -4.229949723821846e-15
    vertex 11.720733971105469 50.05046490584216 0.8000000000000002
    vertex 11.430784477444302 49.82797883420511 0.8000000000000002
  endloop
endfacet
facet normal 0.37144363548020176 -0.8967442624334657 0.24058128242635693
  outer loop
    vertex 12.05838730796194 50.190325497348645 0.8000000000000002
    vertex 11.820733971105469 49.877259825085275 -4.229949723821846e-15
    vertex 12.110151116982443 49.99714033209083 -4.229949723821846e-15
  endloop
endfacet
facet normal 0.37144363548020176 -0.8967442624334657 0.24058128242635693
  outer loop
    vertex 11.820733971105469 49.877259825085275 -4.229949723821846e-15
    vertex 12.05838730796194 50.190325497348645 0.8000000000000002
    vertex 11.720733971105469 50.05046490584216 0.8000000000000002
  endloop
endfacet
facet normal 0.12669250681682373 -0.9623251297054232 0.24058128242635507
  outer loop
    vertex 12.42073397110547 50.238029340543946 0.8000000000000002
    vertex 12.110151116982443 49.99714033209083 -4.229949723821846e-15
    vertex 12.42073397110547 50.03802934054394 -4.229949723821846e-15
  endloop
endfacet
facet normal 0.12669250681682373 -0.9623251297054232 0.24058128242635507
  outer loop
    vertex 12.110151116982443 49.99714033209083 -4.229949723821846e-15
    vertex 12.42073397110547 50.238029340543946 0.8000000000000002
    vertex 12.05838730796194 50.190325497348645 0.8000000000000002
  endloop
endfacet
facet normal -0.12669250681682429 -0.9623251297054232 0.24058128242635501
  outer loop
    vertex 12.783080634248996 50.190325497348645 0.8000000000000002
    vertex 12.42073397110547 50.03802934054394 -4.229949723821846e-15
    vertex 12.731316825228493 49.99714033209083 -4.229949723821846e-15
  endloop
endfacet
facet normal -0.12669250681682429 -0.9623251297054232 0.24058128242635501
  outer loop
    vertex 12.42073397110547 50.03802934054394 -4.229949723821846e-15
    vertex 12.783080634248996 50.190325497348645 0.8000000000000002
    vertex 12.42073397110547 50.238029340543946 0.8000000000000002
  endloop
endfacet
facet normal -0.3714436354802018 -0.8967442624334657 0.24058128242635693
  outer loop
    vertex 13.120733971105468 50.05046490584216 0.8000000000000002
    vertex 12.731316825228493 49.99714033209083 -4.229949723821846e-15
    vertex 13.020733971105468 49.877259825085275 -4.229949723821846e-15
  endloop
endfacet
facet normal -0.3714436354802018 -0.8967442624334657 0.24058128242635693
  outer loop
    vertex 12.731316825228493 49.99714033209083 -4.229949723821846e-15
    vertex 13.120733971105468 50.05046490584216 0.8000000000000002
    vertex 12.783080634248996 50.190325497348645 0.8000000000000002
  endloop
endfacet
facet normal -0.5908814942252189 -0.770051755616636 0.24058128242635504
  outer loop
    vertex 13.410683464766636 49.82797883420511 0.8000000000000002
    vertex 13.020733971105468 49.877259825085275 -4.229949723821846e-15
    vertex 13.269262108529327 49.68655747796781 -4.229949723821846e-15
  endloop
endfacet
facet normal -0.5908814942252189 -0.770051755616636 0.24058128242635504
  outer loop
    vertex 13.020733971105468 49.877259825085275 -4.229949723821846e-15
    vertex 13.410683464766636 49.82797883420511 0.8000000000000002
    vertex 13.120733971105468 50.05046490584216 0.8000000000000002
  endloop
endfacet
facet normal -0.7700517556166369 -0.5908814942252189 0.2405812824263526
  outer loop
    vertex 13.633169536403683 49.53802934054395 0.8000000000000002
    vertex 13.269262108529327 49.68655747796781 -4.229949723821846e-15
    vertex 13.459964455646796 49.43802934054395 -4.229949723821846e-15
  endloop
endfacet
facet normal -0.7700517556166369 -0.5908814942252189 0.2405812824263526
  outer loop
    vertex 13.269262108529327 49.68655747796781 -4.229949723821846e-15
    vertex 13.633169536403683 49.53802934054395 0.8000000000000002
    vertex 13.410683464766636 49.82797883420511 0.8000000000000002
  endloop
endfacet
facet normal -0.8967442624334673 -0.37144363548020054 0.2405812824263531
  outer loop
    vertex 13.773030127910165 49.20037600368748 0.8000000000000002
    vertex 13.459964455646796 49.43802934054395 -4.229949723821846e-15
    vertex 13.579844962652352 49.148612194666974 -4.229949723821846e-15
  endloop
endfacet
facet normal -0.8967442624334673 -0.37144363548020054 0.2405812824263531
  outer loop
    vertex 13.459964455646796 49.43802934054395 -4.229949723821846e-15
    vertex 13.773030127910165 49.20037600368748 0.8000000000000002
    vertex 13.633169536403683 49.53802934054395 0.8000000000000002
  endloop
endfacet
facet normal -0.9623251297054218 -0.1266925068168359 0.24058128242635363
  outer loop
    vertex 13.773030127910165 49.20037600368748 0.8000000000000002
    vertex 13.62073397110547 48.83802934054395 -4.229949723821846e-15
    vertex 13.82073397110547 48.83802934054395 0.8000000000000002
  endloop
endfacet
facet normal -0.9623251297054218 -0.1266925068168359 0.24058128242635363
  outer loop
    vertex 13.62073397110547 48.83802934054395 -4.229949723821846e-15
    vertex 13.773030127910165 49.20037600368748 0.8000000000000002
    vertex 13.579844962652352 49.148612194666974 -4.229949723821846e-15
  endloop
endfacet
facet normal -0.38268343236509383 0.9238795325112852 2.693538951937755e-16
  outer loop
    vertex 10.920733971105465 51.43610555189726 8.799999999999999
    vertex 11.644276835797898 51.73580681941115 0.8000000000000002
    vertex 10.920733971105463 51.43610555189726 0.8000000000000002
  endloop
endfacet
facet normal -0.38268343236509383 0.9238795325112852 2.693538951937755e-16
  outer loop
    vertex 11.644276835797898 51.73580681941115 0.8000000000000002
    vertex 10.920733971105465 51.43610555189726 8.799999999999999
    vertex 11.644276835797907 51.73580681941115 8.799999999999999
  endloop
endfacet
facet normal -0.6087614290087183 0.7933533402912369 -2.9093879397722943e-16
  outer loop
    vertex 10.299413627545825 50.9593496841036 8.799999999999999
    vertex 10.920733971105463 51.43610555189726 0.8000000000000002
    vertex 10.29941362754582 50.959349684103586 0.8000000000000002
  endloop
endfacet
facet normal -0.6087614290087183 0.7933533402912369 -2.9093879397722943e-16
  outer loop
    vertex 10.920733971105463 51.43610555189726 0.8000000000000002
    vertex 10.299413627545825 50.9593496841036 8.799999999999999
    vertex 10.920733971105465 51.43610555189726 8.799999999999999
  endloop
endfacet
facet normal -0.7933533402912386 0.6087614290087161 -2.937464098002507e-16
  outer loop
    vertex 9.822657759752152 50.33802934054395 8.799999999999999
    vertex 10.29941362754582 50.959349684103586 0.8000000000000002
    vertex 9.822657759752149 50.33802934054394 0.8000000000000002
  endloop
endfacet
facet normal -0.7933533402912386 0.6087614290087161 -2.937464098002507e-16
  outer loop
    vertex 10.29941362754582 50.959349684103586 0.8000000000000002
    vertex 9.822657759752152 50.33802934054395 8.799999999999999
    vertex 10.299413627545825 50.9593496841036 8.799999999999999
  endloop
endfacet
facet normal -0.9238795325112871 0.382683432365089 1.0884560878274232e-16
  outer loop
    vertex 9.822657759752152 50.33802934054395 8.799999999999999
    vertex 9.522956492238261 49.61448647585151 0.8000000000000002
    vertex 9.522956492238263 49.61448647585151 8.799999999999999
  endloop
endfacet
facet normal -0.9238795325112871 0.382683432365089 1.0884560878274232e-16
  outer loop
    vertex 9.522956492238261 49.61448647585151 0.8000000000000002
    vertex 9.822657759752152 50.33802934054395 8.799999999999999
    vertex 9.822657759752149 50.33802934054394 0.8000000000000002
  endloop
endfacet
facet normal -0.9914448613738107 0.13052619222004902 -4.642339434950253e-18
  outer loop
    vertex 9.42073397110547 48.83802934054395 8.799999999999999
    vertex 9.522956492238261 49.61448647585151 0.8000000000000002
    vertex 9.42073397110547 48.83802934054394 0.8000000000000002
  endloop
endfacet
facet normal -0.9914448613738107 0.13052619222004902 -4.642339434950253e-18
  outer loop
    vertex 9.522956492238261 49.61448647585151 0.8000000000000002
    vertex 9.42073397110547 48.83802934054395 8.799999999999999
    vertex 9.522956492238263 49.61448647585151 8.799999999999999
  endloop
endfacet
facet normal 0.9503005929042313 -0.1251094465146212 0.2850901778712687
  outer loop
    vertex 11.02073397110547 48.83802934054395 6.8
    vertex 10.488882318527333 49.35566743074898 8.799999999999999
    vertex 10.42073397110547 48.83802934054394 8.799999999999999
  endloop
endfacet
facet normal 0.9503005929042313 -0.1251094465146212 0.2850901778712687
  outer loop
    vertex 10.488882318527333 49.35566743074898 8.799999999999999
    vertex 11.02073397110547 48.83802934054395 6.8
    vertex 11.068437814300774 49.20037600368748 6.8
  endloop
endfacet
facet normal 0.885539177943791 -0.3668023375170383 0.2850901778712684
  outer loop
    vertex 11.208298405807255 49.53802934054395 6.8
    vertex 10.488882318527333 49.35566743074898 8.799999999999999
    vertex 11.068437814300774 49.20037600368748 6.8
  endloop
endfacet
facet normal 0.885539177943791 -0.3668023375170383 0.2850901778712684
  outer loop
    vertex 10.488882318527333 49.35566743074898 8.799999999999999
    vertex 11.208298405807255 49.53802934054395 6.8
    vertex 10.68868316353659 49.83802934054394 8.799999999999999
  endloop
endfacet
facet normal 0.7604297314291678 -0.5834982553871884 0.28509017787126845
  outer loop
    vertex 11.430784477444302 49.82797883420511 6.8
    vertex 10.68868316353659 49.83802934054394 8.799999999999999
    vertex 11.208298405807255 49.53802934054395 6.8
  endloop
endfacet
facet normal 0.7604297314291678 -0.5834982553871884 0.28509017787126845
  outer loop
    vertex 10.68868316353659 49.83802934054394 8.799999999999999
    vertex 11.430784477444302 49.82797883420511 6.8
    vertex 11.006520408732369 50.25224290291703 8.799999999999999
  endloop
endfacet
facet normal 0.5834982553871944 -0.7604297314291633 0.28509017787126795
  outer loop
    vertex 11.420733971105465 50.57008014811282 8.799999999999999
    vertex 11.430784477444302 49.82797883420511 6.8
    vertex 11.720733971105469 50.05046490584216 6.8
  endloop
endfacet
facet normal 0.5834982553871944 -0.7604297314291633 0.28509017787126795
  outer loop
    vertex 11.430784477444302 49.82797883420511 6.8
    vertex 11.420733971105465 50.57008014811282 8.799999999999999
    vertex 11.006520408732369 50.25224290291703 8.799999999999999
  endloop
endfacet
facet normal 0.36680233751704644 -0.8855391779437877 0.2850901778712688
  outer loop
    vertex 11.903095880900423 50.76988099312209 8.799999999999999
    vertex 11.720733971105469 50.05046490584216 6.8
    vertex 12.05838730796194 50.190325497348645 6.8
  endloop
endfacet
facet normal 0.36680233751704644 -0.8855391779437877 0.2850901778712688
  outer loop
    vertex 11.720733971105469 50.05046490584216 6.8
    vertex 11.903095880900423 50.76988099312209 8.799999999999999
    vertex 11.420733971105465 50.57008014811282 8.799999999999999
  endloop
endfacet
facet normal 0.1251094465146146 -0.9503005929042321 0.28509017787126933
  outer loop
    vertex 12.420733971105463 50.83802934054395 8.799999999999999
    vertex 12.05838730796194 50.190325497348645 6.8
    vertex 12.42073397110547 50.238029340543946 6.8
  endloop
endfacet
facet normal 0.1251094465146146 -0.9503005929042321 0.28509017787126933
  outer loop
    vertex 12.05838730796194 50.190325497348645 6.8
    vertex 12.420733971105463 50.83802934054395 8.799999999999999
    vertex 11.903095880900423 50.76988099312209 8.799999999999999
  endloop
endfacet
facet normal -0.12510944651461503 -0.9503005929042321 0.2850901778712687
  outer loop
    vertex 12.938372061310504 50.76988099312209 8.799999999999999
    vertex 12.42073397110547 50.238029340543946 6.8
    vertex 12.783080634248996 50.190325497348645 6.8
  endloop
endfacet
facet normal -0.12510944651461503 -0.9503005929042321 0.2850901778712687
  outer loop
    vertex 12.42073397110547 50.238029340543946 6.8
    vertex 12.938372061310504 50.76988099312209 8.799999999999999
    vertex 12.420733971105463 50.83802934054395 8.799999999999999
  endloop
endfacet
facet normal -0.36680233751703456 -0.8855391779437923 0.28509017787126917
  outer loop
    vertex 13.420733971105461 50.57008014811283 8.799999999999999
    vertex 12.783080634248996 50.190325497348645 6.8
    vertex 13.120733971105468 50.05046490584216 6.8
  endloop
endfacet
facet normal -0.36680233751703456 -0.8855391779437923 0.28509017787126917
  outer loop
    vertex 12.783080634248996 50.190325497348645 6.8
    vertex 13.420733971105461 50.57008014811283 8.799999999999999
    vertex 12.938372061310504 50.76988099312209 8.799999999999999
  endloop
endfacet
facet normal -0.5834982553871904 -0.7604297314291657 0.28509017787126956
  outer loop
    vertex 13.834947533478562 50.25224290291705 8.799999999999999
    vertex 13.120733971105468 50.05046490584216 6.8
    vertex 13.410683464766636 49.82797883420511 6.8
  endloop
endfacet
facet normal -0.5834982553871904 -0.7604297314291657 0.28509017787126956
  outer loop
    vertex 13.120733971105468 50.05046490584216 6.8
    vertex 13.834947533478562 50.25224290291705 8.799999999999999
    vertex 13.420733971105461 50.57008014811283 8.799999999999999
  endloop
endfacet
facet normal -0.7604297314291658 -0.5834982553871901 0.2850901778712699
  outer loop
    vertex 14.152784778674345 49.838029340543955 8.799999999999999
    vertex 13.410683464766636 49.82797883420511 6.8
    vertex 13.633169536403683 49.53802934054395 6.8
  endloop
endfacet
facet normal -0.7604297314291658 -0.5834982553871901 0.2850901778712699
  outer loop
    vertex 13.410683464766636 49.82797883420511 6.8
    vertex 14.152784778674345 49.838029340543955 8.799999999999999
    vertex 13.834947533478562 50.25224290291705 8.799999999999999
  endloop
endfacet
facet normal -0.8855391779437908 -0.3668023375170384 0.28509017787126917
  outer loop
    vertex 14.352585623683602 49.355667430748994 8.799999999999999
    vertex 13.633169536403683 49.53802934054395 6.8
    vertex 13.773030127910165 49.20037600368748 6.8
  endloop
endfacet
facet normal -0.8855391779437908 -0.3668023375170384 0.28509017787126917
  outer loop
    vertex 13.633169536403683 49.53802934054395 6.8
    vertex 14.352585623683602 49.355667430748994 8.799999999999999
    vertex 14.152784778674345 49.838029340543955 8.799999999999999
  endloop
endfacet
facet normal -0.9503005929042304 -0.12510944651462738 0.28509017787126933
  outer loop
    vertex 14.420733971105468 48.838029340543955 8.799999999999999
    vertex 13.773030127910165 49.20037600368748 6.8
    vertex 13.820733971105467 48.83802934054395 6.8
  endloop
endfacet
facet normal -0.9503005929042304 -0.12510944651462738 0.28509017787126933
  outer loop
    vertex 13.773030127910165 49.20037600368748 6.8
    vertex 14.420733971105468 48.838029340543955 8.799999999999999
    vertex 14.352585623683602 49.355667430748994 8.799999999999999
  endloop
endfacet
facet normal -0.9503005929042311 0.12510944651462036 0.2850901778712698
  outer loop
    vertex 14.420733971105468 48.838029340543955 8.799999999999999
    vertex 13.773030127910165 48.47568267740042 6.8
    vertex 14.352585623683607 48.320391250338915 8.799999999999999
  endloop
endfacet
facet normal -0.9503005929042311 0.12510944651462036 0.2850901778712698
  outer loop
    vertex 13.773030127910165 48.47568267740042 6.8
    vertex 14.420733971105468 48.838029340543955 8.799999999999999
    vertex 13.820733971105467 48.83802934054395 6.8
  endloop
endfacet
facet normal -0.8855391779437904 0.366802337517039 0.2850901778712694
  outer loop
    vertex 14.352585623683607 48.320391250338915 8.799999999999999
    vertex 13.633169536403683 48.13802934054395 6.8
    vertex 14.152784778674347 47.83802934054395 8.799999999999999
  endloop
endfacet
facet normal -0.8855391779437904 0.366802337517039 0.2850901778712694
  outer loop
    vertex 13.633169536403683 48.13802934054395 6.8
    vertex 14.352585623683607 48.320391250338915 8.799999999999999
    vertex 13.773030127910165 48.47568267740042 6.8
  endloop
endfacet
facet normal -0.7604297314291657 0.5834982553871905 0.28509017787126933
  outer loop
    vertex 14.152784778674347 47.83802934054395 8.799999999999999
    vertex 13.410683464766636 47.84807984688278 6.8
    vertex 13.834947533478566 47.423815778170855 8.799999999999999
  endloop
endfacet
facet normal -0.7604297314291657 0.5834982553871905 0.28509017787126933
  outer loop
    vertex 13.410683464766636 47.84807984688278 6.8
    vertex 14.152784778674347 47.83802934054395 8.799999999999999
    vertex 13.633169536403683 48.13802934054395 6.8
  endloop
endfacet
facet normal -0.5834982553871911 0.7604297314291657 0.2850901778712685
  outer loop
    vertex 13.420733971105474 47.10597853297507 8.799999999999999
    vertex 13.410683464766636 47.84807984688278 6.8
    vertex 13.120733971105468 47.62559377524573 6.8
  endloop
endfacet
facet normal -0.5834982553871911 0.7604297314291657 0.2850901778712685
  outer loop
    vertex 13.410683464766636 47.84807984688278 6.8
    vertex 13.420733971105474 47.10597853297507 8.799999999999999
    vertex 13.834947533478566 47.423815778170855 8.799999999999999
  endloop
endfacet
facet normal -0.36680233751704644 0.8855391779437877 0.2850901778712688
  outer loop
    vertex 12.938372061310515 46.90617768796581 8.799999999999999
    vertex 13.120733971105468 47.62559377524573 6.8
    vertex 12.783080634248996 47.48573318373925 6.8
  endloop
endfacet
facet normal -0.36680233751704644 0.8855391779437877 0.2850901778712688
  outer loop
    vertex 13.120733971105468 47.62559377524573 6.8
    vertex 12.938372061310515 46.90617768796581 8.799999999999999
    vertex 13.420733971105474 47.10597853297507 8.799999999999999
  endloop
endfacet
facet normal -0.12510944651462166 0.9503005929042306 0.28509017787127067
  outer loop
    vertex 12.420733971105475 46.83802934054395 8.799999999999999
    vertex 12.783080634248996 47.48573318373925 6.8
    vertex 12.420733971105468 47.43802934054395 6.8
  endloop
endfacet
facet normal -0.12510944651462166 0.9503005929042306 0.28509017787127067
  outer loop
    vertex 12.783080634248996 47.48573318373925 6.8
    vertex 12.420733971105475 46.83802934054395 8.799999999999999
    vertex 12.938372061310515 46.90617768796581 8.799999999999999
  endloop
endfacet
facet normal 0.12510944651462175 0.9503005929042309 0.2850901778712699
  outer loop
    vertex 11.903095880900436 46.90617768796581 8.799999999999999
    vertex 12.420733971105468 47.43802934054395 6.8
    vertex 12.05838730796194 47.48573318373925 6.8
  endloop
endfacet
facet normal 0.12510944651462175 0.9503005929042309 0.2850901778712699
  outer loop
    vertex 12.420733971105468 47.43802934054395 6.8
    vertex 11.903095880900436 46.90617768796581 8.799999999999999
    vertex 12.420733971105475 46.83802934054395 8.799999999999999
  endloop
endfacet
facet normal 0.36680233751703467 0.8855391779437926 0.285090177871269
  outer loop
    vertex 11.420733971105477 47.105978532975065 8.799999999999999
    vertex 12.05838730796194 47.48573318373925 6.8
    vertex 11.720733971105469 47.62559377524573 6.8
  endloop
endfacet
facet normal 0.36680233751703467 0.8855391779437926 0.285090177871269
  outer loop
    vertex 12.05838730796194 47.48573318373925 6.8
    vertex 11.420733971105477 47.105978532975065 8.799999999999999
    vertex 11.903095880900436 46.90617768796581 8.799999999999999
  endloop
endfacet
facet normal 0.5834982553871891 0.7604297314291665 0.28509017787126983
  outer loop
    vertex 11.006520408732381 47.42381577817084 8.799999999999999
    vertex 11.720733971105469 47.62559377524573 6.8
    vertex 11.430784477444302 47.84807984688278 6.8
  endloop
endfacet
facet normal 0.5834982553871891 0.7604297314291665 0.28509017787126983
  outer loop
    vertex 11.720733971105469 47.62559377524573 6.8
    vertex 11.006520408732381 47.42381577817084 8.799999999999999
    vertex 11.420733971105477 47.105978532975065 8.799999999999999
  endloop
endfacet
facet normal 0.7604297314291641 0.5834982553871922 0.2850901778712699
  outer loop
    vertex 11.430784477444302 47.84807984688278 6.8
    vertex 10.688683163536597 47.83802934054394 8.799999999999999
    vertex 11.006520408732381 47.42381577817084 8.799999999999999
  endloop
endfacet
facet normal 0.7604297314291641 0.5834982553871922 0.2850901778712699
  outer loop
    vertex 10.688683163536597 47.83802934054394 8.799999999999999
    vertex 11.430784477444302 47.84807984688278 6.8
    vertex 11.208298405807255 48.13802934054395 6.8
  endloop
endfacet
facet normal 0.9503005929042304 0.1251094465146268 0.28509017787126967
  outer loop
    vertex 11.068437814300776 48.47568267740042 6.8
    vertex 10.42073397110547 48.83802934054394 8.799999999999999
    vertex 10.488882318527335 48.3203912503389 8.799999999999999
  endloop
endfacet
facet normal 0.9503005929042304 0.1251094465146268 0.28509017787126967
  outer loop
    vertex 10.42073397110547 48.83802934054394 8.799999999999999
    vertex 11.068437814300776 48.47568267740042 6.8
    vertex 11.02073397110547 48.83802934054395 6.8
  endloop
endfacet
facet normal 0.8855391779437891 0.366802337517042 0.2850901778712695
  outer loop
    vertex 11.208298405807255 48.13802934054395 6.8
    vertex 10.488882318527335 48.3203912503389 8.799999999999999
    vertex 10.688683163536597 47.83802934054394 8.799999999999999
  endloop
endfacet
facet normal 0.8855391779437891 0.366802337517042 0.2850901778712695
  outer loop
    vertex 10.488882318527335 48.3203912503389 8.799999999999999
    vertex 11.208298405807255 48.13802934054395 6.8
    vertex 11.068437814300776 48.47568267740042 6.8
  endloop
endfacet
facet normal -0.1305261922200446 0.9914448613738114 1.3809271189240431e-16
  outer loop
    vertex 11.644276835797907 51.73580681941115 8.799999999999999
    vertex 12.420733971105461 51.83802934054394 0.8000000000000002
    vertex 11.644276835797898 51.73580681941115 0.8000000000000002
  endloop
endfacet
facet normal -0.1305261922200446 0.9914448613738114 1.3809271189240431e-16
  outer loop
    vertex 12.420733971105461 51.83802934054394 0.8000000000000002
    vertex 11.644276835797907 51.73580681941115 8.799999999999999
    vertex 12.42073397110547 51.83802934054394 8.799999999999999
  endloop
endfacet
facet normal 0.13052619222004483 0.9914448613738114 -1.6091795352751274e-16
  outer loop
    vertex 12.42073397110547 51.83802934054394 8.799999999999999
    vertex 13.19719110641302 51.73580681941115 0.8000000000000002
    vertex 12.420733971105461 51.83802934054394 0.8000000000000002
  endloop
endfacet
facet normal 0.13052619222004483 0.9914448613738114 -1.6091795352751274e-16
  outer loop
    vertex 13.19719110641302 51.73580681941115 0.8000000000000002
    vertex 12.42073397110547 51.83802934054394 8.799999999999999
    vertex 13.197191106413031 51.73580681941115 8.799999999999999
  endloop
endfacet
facet normal 0.7933533402912333 0.608761429008723 4.399499450963951e-16
  outer loop
    vertex 15.01881018245878 50.338029340543955 0.8000000000000002
    vertex 14.542054314665112 50.959349684103586 8.799999999999999
    vertex 15.018810182458786 50.33802934054395 8.799999999999999
  endloop
endfacet
facet normal 0.7933533402912333 0.608761429008723 4.399499450963951e-16
  outer loop
    vertex 14.542054314665112 50.959349684103586 8.799999999999999
    vertex 15.01881018245878 50.338029340543955 0.8000000000000002
    vertex 14.542054314665108 50.9593496841036 0.8000000000000002
  endloop
endfacet
facet normal 0.38268343236508695 0.9238795325112878 2.4642022946241306e-16
  outer loop
    vertex 13.197191106413031 51.73580681941115 8.799999999999999
    vertex 13.920733971105463 51.43610555189727 0.8000000000000002
    vertex 13.19719110641302 51.73580681941115 0.8000000000000002
  endloop
endfacet
facet normal 0.38268343236508695 0.9238795325112878 2.4642022946241306e-16
  outer loop
    vertex 13.920733971105463 51.43610555189727 0.8000000000000002
    vertex 13.197191106413031 51.73580681941115 8.799999999999999
    vertex 13.92073397110547 51.43610555189726 8.799999999999999
  endloop
endfacet
facet normal 0.6087614290087215 0.7933533402912344 7.978518537792724e-16
  outer loop
    vertex 13.92073397110547 51.43610555189726 8.799999999999999
    vertex 14.542054314665108 50.9593496841036 0.8000000000000002
    vertex 13.920733971105463 51.43610555189727 0.8000000000000002
  endloop
endfacet
facet normal 0.6087614290087215 0.7933533402912344 7.978518537792724e-16
  outer loop
    vertex 14.542054314665108 50.9593496841036 0.8000000000000002
    vertex 13.92073397110547 51.43610555189726 8.799999999999999
    vertex 14.542054314665112 50.959349684103586 8.799999999999999
  endloop
endfacet
facet normal 0.9238795325112867 0.3826834323650898 -8.284102457035647e-17
  outer loop
    vertex 15.318511449972672 49.614486475851514 0.8000000000000002
    vertex 15.018810182458786 50.33802934054395 8.799999999999999
    vertex 15.318511449972675 49.614486475851514 8.799999999999999
  endloop
endfacet
facet normal 0.9238795325112867 0.3826834323650898 -8.284102457035647e-17
  outer loop
    vertex 15.018810182458786 50.33802934054395 8.799999999999999
    vertex 15.318511449972672 49.614486475851514 0.8000000000000002
    vertex 15.01881018245878 50.338029340543955 0.8000000000000002
  endloop
endfacet
facet normal -0.9914448613738103 -0.13052619222005346 9.3135132763351e-18
  outer loop
    vertex 9.522956492238265 48.06157220523639 8.799999999999999
    vertex 9.42073397110547 48.83802934054394 0.8000000000000002
    vertex 9.522956492238267 48.061572205236374 0.8000000000000002
  endloop
endfacet
facet normal -0.9914448613738103 -0.13052619222005346 9.3135132763351e-18
  outer loop
    vertex 9.42073397110547 48.83802934054394 0.8000000000000002
    vertex 9.522956492238265 48.06157220523639 8.799999999999999
    vertex 9.42073397110547 48.83802934054395 8.799999999999999
  endloop
endfacet
facet normal -0.9238795325112857 -0.38268343236509206 1.0639627373760415e-16
  outer loop
    vertex 9.822657759752154 47.338029340543955 8.799999999999999
    vertex 9.522956492238267 48.061572205236374 0.8000000000000002
    vertex 9.822657759752161 47.33802934054393 0.8000000000000002
  endloop
endfacet
facet normal -0.9238795325112857 -0.38268343236509206 1.0639627373760415e-16
  outer loop
    vertex 9.522956492238267 48.061572205236374 0.8000000000000002
    vertex 9.822657759752154 47.338029340543955 8.799999999999999
    vertex 9.522956492238265 48.06157220523639 8.799999999999999
  endloop
endfacet
facet normal -0.7933533402912333 -0.608761429008723 1.5941614670194686e-16
  outer loop
    vertex 10.299413627545826 46.71670899698431 8.799999999999999
    vertex 9.822657759752161 47.33802934054393 0.8000000000000002
    vertex 10.299413627545833 46.7167089969843 0.8000000000000002
  endloop
endfacet
facet normal -0.7933533402912333 -0.608761429008723 1.5941614670194686e-16
  outer loop
    vertex 9.822657759752161 47.33802934054393 0.8000000000000002
    vertex 10.299413627545826 46.71670899698431 8.799999999999999
    vertex 9.822657759752154 47.338029340543955 8.799999999999999
  endloop
endfacet
facet normal -0.6087614290087203 -0.7933533402912356 8.577302081374717e-17
  outer loop
    vertex 10.920733971105467 46.23995312919064 8.799999999999999
    vertex 10.299413627545833 46.7167089969843 0.8000000000000002
    vertex 10.920733971105479 46.239953129190624 0.8000000000000002
  endloop
endfacet
facet normal -0.6087614290087203 -0.7933533402912356 8.577302081374717e-17
  outer loop
    vertex 10.299413627545833 46.7167089969843 0.8000000000000002
    vertex 10.920733971105467 46.23995312919064 8.799999999999999
    vertex 10.299413627545826 46.71670899698431 8.799999999999999
  endloop
endfacet
facet normal -0.38268343236508784 -0.9238795325112875 7.577366232101644e-17
  outer loop
    vertex 11.644276835797905 45.94025186167674 8.799999999999999
    vertex 10.920733971105479 46.239953129190624 0.8000000000000002
    vertex 11.644276835797916 45.94025186167674 0.8000000000000002
  endloop
endfacet
facet normal -0.38268343236508784 -0.9238795325112875 7.577366232101644e-17
  outer loop
    vertex 10.920733971105479 46.239953129190624 0.8000000000000002
    vertex 11.644276835797905 45.94025186167674 8.799999999999999
    vertex 10.920733971105467 46.23995312919064 8.799999999999999
  endloop
endfacet
facet normal -0.13052619222005207 -0.9914448613738105 -1.9515581598018592e-16
  outer loop
    vertex 12.420733971105465 45.83802934054395 8.799999999999999
    vertex 11.644276835797916 45.94025186167674 0.8000000000000002
    vertex 12.420733971105477 45.83802934054395 0.8000000000000002
  endloop
endfacet
facet normal -0.13052619222005207 -0.9914448613738105 -1.9515581598018592e-16
  outer loop
    vertex 11.644276835797916 45.94025186167674 0.8000000000000002
    vertex 12.420733971105465 45.83802934054395 8.799999999999999
    vertex 11.644276835797905 45.94025186167674 8.799999999999999
  endloop
endfacet
facet normal 0.13052619222004802 -0.9914448613738109 -1.5430301323972248e-16
  outer loop
    vertex 13.19719110641303 45.940251861676735 8.799999999999999
    vertex 12.420733971105477 45.83802934054395 0.8000000000000002
    vertex 13.19719110641304 45.94025186167674 0.8000000000000002
  endloop
endfacet
facet normal 0.13052619222004802 -0.9914448613738109 -1.5430301323972248e-16
  outer loop
    vertex 12.420733971105477 45.83802934054395 0.8000000000000002
    vertex 13.19719110641303 45.940251861676735 8.799999999999999
    vertex 12.420733971105465 45.83802934054395 8.799999999999999
  endloop
endfacet
facet normal 0.3826834323650912 -0.9238795325112862 8.14014377035619e-17
  outer loop
    vertex 13.92073397110547 46.23995312919063 8.799999999999999
    vertex 13.19719110641304 45.94025186167674 0.8000000000000002
    vertex 13.920733971105475 46.23995312919063 0.8000000000000002
  endloop
endfacet
facet normal 0.3826834323650912 -0.9238795325112862 8.14014377035619e-17
  outer loop
    vertex 13.19719110641304 45.94025186167674 0.8000000000000002
    vertex 13.92073397110547 46.23995312919063 8.799999999999999
    vertex 13.19719110641303 45.940251861676735 8.799999999999999
  endloop
endfacet
facet normal 0.6087614290087224 -0.7933533402912337 -1.299260592963769e-16
  outer loop
    vertex 14.542054314665112 46.7167089969843 8.799999999999999
    vertex 13.920733971105475 46.23995312919063 0.8000000000000002
    vertex 14.542054314665117 46.71670899698431 0.8000000000000002
  endloop
endfacet
facet normal 0.6087614290087224 -0.7933533402912337 -1.299260592963769e-16
  outer loop
    vertex 13.920733971105475 46.23995312919063 0.8000000000000002
    vertex 14.542054314665112 46.7167089969843 8.799999999999999
    vertex 13.92073397110547 46.23995312919063 8.799999999999999
  endloop
endfacet
facet normal 0.7933533402912356 -0.6087614290087203 -3.6484782408663545e-16
  outer loop
    vertex 14.542054314665117 46.71670899698431 0.8000000000000002
    vertex 15.018810182458786 47.33802934054395 8.799999999999999
    vertex 14.542054314665112 46.7167089969843 8.799999999999999
  endloop
endfacet
facet normal 0.7933533402912356 -0.6087614290087203 -3.6484782408663545e-16
  outer loop
    vertex 15.018810182458786 47.33802934054395 8.799999999999999
    vertex 14.542054314665117 46.71670899698431 0.8000000000000002
    vertex 15.018810182458786 47.338029340543955 0.8000000000000002
  endloop
endfacet
facet normal 0.9238795325112873 -0.3826834323650885 -1.0845744404027462e-16
  outer loop
    vertex 15.018810182458786 47.338029340543955 0.8000000000000002
    vertex 15.318511449972675 48.06157220523639 8.799999999999999
    vertex 15.018810182458786 47.33802934054395 8.799999999999999
  endloop
endfacet
facet normal 0.9238795325112873 -0.3826834323650885 -1.0845744404027462e-16
  outer loop
    vertex 15.318511449972675 48.06157220523639 8.799999999999999
    vertex 15.018810182458786 47.338029340543955 0.8000000000000002
    vertex 15.318511449972677 48.061572205236395 0.8000000000000002
  endloop
endfacet
facet normal 0.9914448613738107 -0.13052619222004944 3.63658044003169e-17
  outer loop
    vertex 15.318511449972677 48.061572205236395 0.8000000000000002
    vertex 15.42073397110547 48.83802934054395 8.799999999999999
    vertex 15.318511449972675 48.06157220523639 8.799999999999999
  endloop
endfacet
facet normal 0.9914448613738107 -0.13052619222004944 3.63658044003169e-17
  outer loop
    vertex 15.42073397110547 48.83802934054395 8.799999999999999
    vertex 15.318511449972677 48.061572205236395 0.8000000000000002
    vertex 15.42073397110547 48.83802934054396 0.8000000000000002
  endloop
endfacet
facet normal 0.99144486137381 0.13052619222005393 -3.690760103476154e-17
  outer loop
    vertex 15.42073397110547 48.83802934054396 0.8000000000000002
    vertex 15.318511449972675 49.614486475851514 8.799999999999999
    vertex 15.42073397110547 48.83802934054395 8.799999999999999
  endloop
endfacet
facet normal 0.99144486137381 0.13052619222005393 -3.690760103476154e-17
  outer loop
    vertex 15.318511449972675 49.614486475851514 8.799999999999999
    vertex 15.42073397110547 48.83802934054396 0.8000000000000002
    vertex 15.318511449972672 49.614486475851514 0.8000000000000002
  endloop
endfacet
facet normal 0.0 0.0 1.0
  outer loop
    vertex 10.299413627545826 46.71670899698431 8.799999999999999
    vertex 10.488882318527335 48.3203912503389 8.799999999999999
    vertex 10.42073397110547 48.83802934054394 8.799999999999999
  endloop
endfacet
facet normal 0.0 0.0 1.0
  outer loop
    vertex 10.488882318527335 48.3203912503389 8.799999999999999
    vertex 10.299413627545826 46.71670899698431 8.799999999999999
    vertex 10.920733971105467 46.23995312919064 8.799999999999999
  endloop
endfacet
facet normal 0.0 0.0 1.0
  outer loop
    vertex 10.488882318527335 48.3203912503389 8.799999999999999
    vertex 10.920733971105467 46.23995312919064 8.799999999999999
    vertex 10.688683163536597 47.83802934054394 8.799999999999999
  endloop
endfacet
facet normal 0.0 0.0 1.0
  outer loop
    vertex 10.688683163536597 47.83802934054394 8.799999999999999
    vertex 10.920733971105467 46.23995312919064 8.799999999999999
    vertex 11.006520408732381 47.42381577817084 8.799999999999999
  endloop
endfacet
facet normal 0.0 0.0 1.0
  outer loop
    vertex 11.006520408732381 47.42381577817084 8.799999999999999
    vertex 10.920733971105467 46.23995312919064 8.799999999999999
    vertex 11.644276835797905 45.94025186167674 8.799999999999999
  endloop
endfacet
facet normal 0.0 0.0 1.0
  outer loop
    vertex 11.006520408732381 47.42381577817084 8.799999999999999
    vertex 11.644276835797905 45.94025186167674 8.799999999999999
    vertex 11.420733971105477 47.105978532975065 8.799999999999999
  endloop
endfacet
facet normal 0.0 0.0 1.0
  outer loop
    vertex 11.420733971105477 47.105978532975065 8.799999999999999
    vertex 11.644276835797905 45.94025186167674 8.799999999999999
    vertex 11.903095880900436 46.90617768796581 8.799999999999999
  endloop
endfacet
facet normal 0.0 0.0 1.0
  outer loop
    vertex 11.903095880900436 46.90617768796581 8.799999999999999
    vertex 11.644276835797905 45.94025186167674 8.799999999999999
    vertex 12.420733971105465 45.83802934054395 8.799999999999999
  endloop
endfacet
facet normal 0.0 0.0 1.0
  outer loop
    vertex 11.903095880900436 46.90617768796581 8.799999999999999
    vertex 12.420733971105465 45.83802934054395 8.799999999999999
    vertex 12.420733971105475 46.83802934054395 8.799999999999999
  endloop
endfacet
facet normal 0.0 0.0 1.0
  outer loop
    vertex 12.420733971105475 46.83802934054395 8.799999999999999
    vertex 12.420733971105465 45.83802934054395 8.799999999999999
    vertex 13.19719110641303 45.940251861676735 8.799999999999999
  endloop
endfacet
facet normal 0.0 0.0 1.0
  outer loop
    vertex 12.420733971105475 46.83802934054395 8.799999999999999
    vertex 13.19719110641303 45.940251861676735 8.799999999999999
    vertex 12.938372061310515 46.90617768796581 8.799999999999999
  endloop
endfacet
facet normal 0.0 0.0 1.0
  outer loop
    vertex 12.938372061310515 46.90617768796581 8.799999999999999
    vertex 13.19719110641303 45.940251861676735 8.799999999999999
    vertex 13.420733971105474 47.10597853297507 8.799999999999999
  endloop
endfacet
facet normal 0.0 0.0 1.0
  outer loop
    vertex 13.420733971105474 47.10597853297507 8.799999999999999
    vertex 13.19719110641303 45.940251861676735 8.799999999999999
    vertex 13.92073397110547 46.23995312919063 8.799999999999999
  endloop
endfacet
facet normal 0.0 0.0 1.0
  outer loop
    vertex 13.420733971105474 47.10597853297507 8.799999999999999
    vertex 13.92073397110547 46.23995312919063 8.799999999999999
    vertex 13.834947533478566 47.423815778170855 8.799999999999999
  endloop
endfacet
facet normal 0.0 0.0 1.0
  outer loop
    vertex 13.834947533478566 47.423815778170855 8.799999999999999
    vertex 13.92073397110547 46.23995312919063 8.799999999999999
    vertex 14.152784778674347 47.83802934054395 8.799999999999999
  endloop
endfacet
facet normal 0.0 0.0 1.0
  outer loop
    vertex 14.152784778674347 47.83802934054395 8.799999999999999
    vertex 13.92073397110547 46.23995312919063 8.799999999999999
    vertex 14.542054314665112 46.7167089969843 8.799999999999999
  endloop
endfacet
facet normal 0.0 0.0 1.0
  outer loop
    vertex 14.152784778674347 47.83802934054395 8.799999999999999
    vertex 14.542054314665112 46.7167089969843 8.799999999999999
    vertex 14.352585623683607 48.320391250338915 8.799999999999999
  endloop
endfacet
facet normal 0.0 0.0 1.0
  outer loop
    vertex 14.352585623683607 48.320391250338915 8.799999999999999
    vertex 14.542054314665112 46.7167089969843 8.799999999999999
    vertex 14.420733971105468 48.838029340543955 8.799999999999999
  endloop
endfacet
facet normal 0.0 0.0 1.0
  outer loop
    vertex 9.522956492238265 48.06157220523639 8.799999999999999
    vertex 9.522956492238263 49.61448647585151 8.799999999999999
    vertex 9.42073397110547 48.83802934054395 8.799999999999999
  endloop
endfacet
facet normal 0.0 0.0 1.0
  outer loop
    vertex 9.522956492238263 49.61448647585151 8.799999999999999
    vertex 9.522956492238265 48.06157220523639 8.799999999999999
    vertex 9.822657759752152 50.33802934054395 8.799999999999999
  endloop
endfacet
facet normal 0.0 0.0 1.0
  outer loop
    vertex 9.822657759752152 50.33802934054395 8.799999999999999
    vertex 9.522956492238265 48.06157220523639 8.799999999999999
    vertex 9.822657759752154 47.338029340543955 8.799999999999999
  endloop
endfacet
facet normal 0.0 0.0 1.0
  outer loop
    vertex 9.822657759752152 50.33802934054395 8.799999999999999
    vertex 9.822657759752154 47.338029340543955 8.799999999999999
    vertex 10.299413627545825 50.9593496841036 8.799999999999999
  endloop
endfacet
facet normal 0.0 0.0 1.0
  outer loop
    vertex 10.299413627545825 50.9593496841036 8.799999999999999
    vertex 9.822657759752154 47.338029340543955 8.799999999999999
    vertex 10.299413627545826 46.71670899698431 8.799999999999999
  endloop
endfacet
facet normal 0.0 0.0 1.0
  outer loop
    vertex 10.299413627545825 50.9593496841036 8.799999999999999
    vertex 10.299413627545826 46.71670899698431 8.799999999999999
    vertex 10.42073397110547 48.83802934054394 8.799999999999999
  endloop
endfacet
facet normal 0.0 0.0 1.0
  outer loop
    vertex 10.299413627545825 50.9593496841036 8.799999999999999
    vertex 10.42073397110547 48.83802934054394 8.799999999999999
    vertex 10.488882318527333 49.35566743074898 8.799999999999999
  endloop
endfacet
facet normal 0.0 0.0 1.0
  outer loop
    vertex 10.299413627545825 50.9593496841036 8.799999999999999
    vertex 10.488882318527333 49.35566743074898 8.799999999999999
    vertex 10.920733971105465 51.43610555189726 8.799999999999999
  endloop
endfacet
facet normal 0.0 0.0 1.0
  outer loop
    vertex 10.920733971105465 51.43610555189726 8.799999999999999
    vertex 10.488882318527333 49.35566743074898 8.799999999999999
    vertex 10.68868316353659 49.83802934054394 8.799999999999999
  endloop
endfacet
facet normal 0.0 0.0 1.0
  outer loop
    vertex 10.920733971105465 51.43610555189726 8.799999999999999
    vertex 10.68868316353659 49.83802934054394 8.799999999999999
    vertex 11.006520408732369 50.25224290291703 8.799999999999999
  endloop
endfacet
facet normal 0.0 0.0 1.0
  outer loop
    vertex 10.920733971105465 51.43610555189726 8.799999999999999
    vertex 11.006520408732369 50.25224290291703 8.799999999999999
    vertex 11.644276835797907 51.73580681941115 8.799999999999999
  endloop
endfacet
facet normal 0.0 0.0 1.0
  outer loop
    vertex 11.644276835797907 51.73580681941115 8.799999999999999
    vertex 11.006520408732369 50.25224290291703 8.799999999999999
    vertex 11.420733971105465 50.57008014811282 8.799999999999999
  endloop
endfacet
facet normal 0.0 0.0 1.0
  outer loop
    vertex 11.644276835797907 51.73580681941115 8.799999999999999
    vertex 11.420733971105465 50.57008014811282 8.799999999999999
    vertex 11.903095880900423 50.76988099312209 8.799999999999999
  endloop
endfacet
facet normal 0.0 0.0 1.0
  outer loop
    vertex 11.644276835797907 51.73580681941115 8.799999999999999
    vertex 11.903095880900423 50.76988099312209 8.799999999999999
    vertex 12.42073397110547 51.83802934054394 8.799999999999999
  endloop
endfacet
facet normal 0.0 0.0 1.0
  outer loop
    vertex 12.42073397110547 51.83802934054394 8.799999999999999
    vertex 11.903095880900423 50.76988099312209 8.799999999999999
    vertex 12.420733971105463 50.83802934054395 8.799999999999999
  endloop
endfacet
facet normal 0.0 0.0 1.0
  outer loop
    vertex 12.42073397110547 51.83802934054394 8.799999999999999
    vertex 12.420733971105463 50.83802934054395 8.799999999999999
    vertex 12.938372061310504 50.76988099312209 8.799999999999999
  endloop
endfacet
facet normal 0.0 0.0 1.0
  outer loop
    vertex 12.42073397110547 51.83802934054394 8.799999999999999
    vertex 12.938372061310504 50.76988099312209 8.799999999999999
    vertex 13.197191106413031 51.73580681941115 8.799999999999999
  endloop
endfacet
facet normal 0.0 0.0 1.0
  outer loop
    vertex 13.197191106413031 51.73580681941115 8.799999999999999
    vertex 12.938372061310504 50.76988099312209 8.799999999999999
    vertex 13.420733971105461 50.57008014811283 8.799999999999999
  endloop
endfacet
facet normal 0.0 0.0 1.0
  outer loop
    vertex 13.197191106413031 51.73580681941115 8.799999999999999
    vertex 13.420733971105461 50.57008014811283 8.799999999999999
    vertex 13.92073397110547 51.43610555189726 8.799999999999999
  endloop
endfacet
facet normal 0.0 0.0 1.0
  outer loop
    vertex 13.92073397110547 51.43610555189726 8.799999999999999
    vertex 13.420733971105461 50.57008014811283 8.799999999999999
    vertex 13.834947533478562 50.25224290291705 8.799999999999999
  endloop
endfacet
facet normal 0.0 0.0 1.0
  outer loop
    vertex 13.92073397110547 51.43610555189726 8.799999999999999
    vertex 13.834947533478562 50.25224290291705 8.799999999999999
    vertex 14.152784778674345 49.838029340543955 8.799999999999999
  endloop
endfacet
facet normal 0.0 0.0 1.0
  outer loop
    vertex 13.92073397110547 51.43610555189726 8.799999999999999
    vertex 14.152784778674345 49.838029340543955 8.799999999999999
    vertex 14.542054314665112 50.959349684103586 8.799999999999999
  endloop
endfacet
facet normal 0.0 0.0 1.0
  outer loop
    vertex 14.542054314665112 50.959349684103586 8.799999999999999
    vertex 14.152784778674345 49.838029340543955 8.799999999999999
    vertex 14.352585623683602 49.355667430748994 8.799999999999999
  endloop
endfacet
facet normal 0.0 0.0 1.0
  outer loop
    vertex 14.542054314665112 50.959349684103586 8.799999999999999
    vertex 14.352585623683602 49.355667430748994 8.799999999999999
    vertex 14.420733971105468 48.838029340543955 8.799999999999999
  endloop
endfacet
facet normal 0.0 0.0 1.0
  outer loop
    vertex 14.542054314665112 50.959349684103586 8.799999999999999
    vertex 14.420733971105468 48.838029340543955 8.799999999999999
    vertex 14.542054314665112 46.7167089969843 8.799999999999999
  endloop
endfacet
facet normal 0.0 0.0 1.0
  outer loop
    vertex 14.542054314665112 50.959349684103586 8.799999999999999
    vertex 14.542054314665112 46.7167089969843 8.799999999999999
    vertex 15.018810182458786 47.33802934054395 8.799999999999999
  endloop
endfacet
facet normal 0.0 0.0 1.0
  outer loop
    vertex 14.542054314665112 50.959349684103586 8.799999999999999
    vertex 15.018810182458786 47.33802934054395 8.799999999999999
    vertex 15.018810182458786 50.33802934054395 8.799999999999999
  endloop
endfacet
facet normal 0.0 0.0 1.0
  outer loop
    vertex 15.018810182458786 50.33802934054395 8.799999999999999
    vertex 15.018810182458786 47.33802934054395 8.799999999999999
    vertex 15.318511449972675 48.06157220523639 8.799999999999999
  endloop
endfacet
facet normal 0.0 0.0 1.0
  outer loop
    vertex 15.018810182458786 50.33802934054395 8.799999999999999
    vertex 15.318511449972675 48.06157220523639 8.799999999999999
    vertex 15.318511449972675 49.614486475851514 8.799999999999999
  endloop
endfacet
facet normal 0.0 0.0 1.0
  outer loop
    vertex 15.318511449972675 49.614486475851514 8.799999999999999
    vertex 15.318511449972675 48.06157220523639 8.799999999999999
    vertex 15.42073397110547 48.83802934054395 8.799999999999999
  endloop
endfacet
facet normal -0.9238795325112855 0.38268343236509267 -8.453276072485805e-32
  outer loop
    vertex 13.773030127910165 48.47568267740042 6.8
    vertex 13.633169536403683 48.13802934054395 0.8000000000000002
    vertex 13.633169536403683 48.13802934054395 6.8
  endloop
endfacet
facet normal -0.9238795325112855 0.38268343236509267 -8.453276072485805e-32
  outer loop
    vertex 13.633169536403683 48.13802934054395 0.8000000000000002
    vertex 13.773030127910165 48.47568267740042 6.8
    vertex 13.773030127910165 48.47568267740042 0.8000000000000002
  endloop
endfacet
facet normal -0.7933533402912384 0.6087614290087168 -1.1828300068383588e-18
  outer loop
    vertex 13.633169536403683 48.13802934054395 6.8
    vertex 13.410683464766636 47.84807984688278 0.8000000000000002
    vertex 13.410683464766636 47.84807984688278 6.8
  endloop
endfacet
facet normal -0.7933533402912384 0.6087614290087168 -1.1828300068383588e-18
  outer loop
    vertex 13.410683464766636 47.84807984688278 0.8000000000000002
    vertex 13.633169536403683 48.13802934054395 6.8
    vertex 13.633169536403683 48.13802934054395 0.8000000000000002
  endloop
endfacet
facet normal -0.6087614290087215 0.7933533402912345 0.0
  outer loop
    vertex 13.120733971105468 47.62559377524573 6.8
    vertex 13.410683464766636 47.84807984688278 0.8000000000000002
    vertex 13.120733971105468 47.62559377524573 0.8000000000000002
  endloop
endfacet
facet normal -0.6087614290087215 0.7933533402912345 0.0
  outer loop
    vertex 13.410683464766636 47.84807984688278 0.8000000000000002
    vertex 13.120733971105468 47.62559377524573 6.8
    vertex 13.410683464766636 47.84807984688278 6.8
  endloop
endfacet
facet normal -0.6087614290087215 -0.7933533402912345 -3.5049517388630617e-31
  outer loop
    vertex 13.410683464766636 49.82797883420511 6.8
    vertex 13.120733971105468 50.05046490584216 0.8000000000000002
    vertex 13.410683464766636 49.82797883420511 0.8000000000000002
  endloop
endfacet
facet normal -0.6087614290087215 -0.7933533402912345 -3.5049517388630617e-31
  outer loop
    vertex 13.120733971105468 50.05046490584216 0.8000000000000002
    vertex 13.410683464766636 49.82797883420511 6.8
    vertex 13.120733971105468 50.05046490584216 6.8
  endloop
endfacet
facet normal -0.38268343236509006 -0.9238795325112867 8.975539363077215e-19
  outer loop
    vertex 13.120733971105468 50.05046490584216 6.8
    vertex 12.783080634248996 50.190325497348645 0.8000000000000002
    vertex 13.120733971105468 50.05046490584216 0.8000000000000002
  endloop
endfacet
facet normal -0.38268343236509006 -0.9238795325112867 8.975539363077215e-19
  outer loop
    vertex 12.783080634248996 50.190325497348645 0.8000000000000002
    vertex 13.120733971105468 50.05046490584216 6.8
    vertex 12.783080634248996 50.190325497348645 6.8
  endloop
endfacet
facet normal -0.9914448613738107 -0.1305261922200504 -2.3309295206536803e-16
  outer loop
    vertex 13.773030127910165 49.20037600368748 6.8
    vertex 13.82073397110547 48.83802934054395 0.8000000000000002
    vertex 13.820733971105467 48.83802934054395 6.8
  endloop
endfacet
facet normal -0.9914448613738107 -0.1305261922200504 -2.3309295206536803e-16
  outer loop
    vertex 13.82073397110547 48.83802934054395 0.8000000000000002
    vertex 13.773030127910165 49.20037600368748 6.8
    vertex 13.773030127910165 49.20037600368748 0.8000000000000002
  endloop
endfacet
facet normal -0.7933533402912383 -0.6087614290087167 8.762379347157696e-32
  outer loop
    vertex 13.410683464766636 49.82797883420511 6.8
    vertex 13.633169536403683 49.53802934054395 0.8000000000000002
    vertex 13.633169536403683 49.53802934054395 6.8
  endloop
endfacet
facet normal -0.7933533402912383 -0.6087614290087167 8.762379347157696e-32
  outer loop
    vertex 13.633169536403683 49.53802934054395 0.8000000000000002
    vertex 13.410683464766636 49.82797883420511 6.8
    vertex 13.410683464766636 49.82797883420511 0.8000000000000002
  endloop
endfacet
facet normal 0.9914448613738103 0.13052619222005332 -1.7792101465153448e-16
  outer loop
    vertex 11.02073397110547 48.83802934054394 0.8000000000000002
    vertex 11.068437814300776 48.47568267740042 6.8
    vertex 11.068437814300776 48.47568267740042 0.8000000000000002
  endloop
endfacet
facet normal 0.9914448613738103 0.13052619222005332 -1.7792101465153448e-16
  outer loop
    vertex 11.068437814300776 48.47568267740042 6.8
    vertex 11.02073397110547 48.83802934054394 0.8000000000000002
    vertex 11.02073397110547 48.83802934054395 6.8
  endloop
endfacet
facet normal -0.9238795325112855 -0.38268343236509267 8.453276072485805e-32
  outer loop
    vertex 13.633169536403683 49.53802934054395 6.8
    vertex 13.773030127910165 49.20037600368748 0.8000000000000002
    vertex 13.773030127910165 49.20037600368748 6.8
  endloop
endfacet
facet normal -0.9238795325112855 -0.38268343236509267 8.453276072485805e-32
  outer loop
    vertex 13.773030127910165 49.20037600368748 0.8000000000000002
    vertex 13.633169536403683 49.53802934054395 6.8
    vertex 13.633169536403683 49.53802934054395 0.8000000000000002
  endloop
endfacet
facet normal -0.13052619222004 -0.991444861373812 -2.0458868853271114e-31
  outer loop
    vertex 12.783080634248996 50.190325497348645 6.8
    vertex 12.42073397110547 50.238029340543946 0.8000000000000002
    vertex 12.783080634248996 50.190325497348645 0.8000000000000002
  endloop
endfacet
facet normal -0.13052619222004 -0.991444861373812 -2.0458868853271114e-31
  outer loop
    vertex 12.42073397110547 50.238029340543946 0.8000000000000002
    vertex 12.783080634248996 50.190325497348645 6.8
    vertex 12.42073397110547 50.238029340543946 6.8
  endloop
endfacet
facet normal 0.9238795325112855 -0.38268343236509267 -8.453276072485805e-32
  outer loop
    vertex 11.208298405807255 49.53802934054395 0.8000000000000002
    vertex 11.068437814300774 49.20037600368748 6.8
    vertex 11.068437814300774 49.20037600368748 0.8000000000000002
  endloop
endfacet
facet normal 0.9238795325112855 -0.38268343236509267 -8.453276072485805e-32
  outer loop
    vertex 11.068437814300774 49.20037600368748 6.8
    vertex 11.208298405807255 49.53802934054395 0.8000000000000002
    vertex 11.208298405807255 49.53802934054395 6.8
  endloop
endfacet
facet normal 0.9914448613738109 -0.1305261922200475 -5.517193741383625e-17
  outer loop
    vertex 11.068437814300774 49.20037600368748 0.8000000000000002
    vertex 11.02073397110547 48.83802934054395 6.8
    vertex 11.02073397110547 48.83802934054394 0.8000000000000002
  endloop
endfacet
facet normal 0.9914448613738109 -0.1305261922200475 -5.517193741383625e-17
  outer loop
    vertex 11.02073397110547 48.83802934054395 6.8
    vertex 11.068437814300774 49.20037600368748 0.8000000000000002
    vertex 11.068437814300774 49.20037600368748 6.8
  endloop
endfacet
facet normal 0.38268343236508995 -0.9238795325112867 -8.975539363077638e-19
  outer loop
    vertex 12.05838730796194 50.190325497348645 6.8
    vertex 11.720733971105469 50.05046490584216 0.8000000000000002
    vertex 12.05838730796194 50.190325497348645 0.8000000000000002
  endloop
endfacet
facet normal 0.38268343236508995 -0.9238795325112867 -8.975539363077638e-19
  outer loop
    vertex 11.720733971105469 50.05046490584216 0.8000000000000002
    vertex 12.05838730796194 50.190325497348645 6.8
    vertex 11.720733971105469 50.05046490584216 6.8
  endloop
endfacet
facet normal 0.7933533402912374 -0.6087614290087179 9.52139686836758e-17
  outer loop
    vertex 11.430784477444302 49.82797883420511 0.8000000000000002
    vertex 11.208298405807255 49.53802934054395 6.8
    vertex 11.208298405807255 49.53802934054395 0.8000000000000002
  endloop
endfacet
facet normal 0.7933533402912374 -0.6087614290087179 9.52139686836758e-17
  outer loop
    vertex 11.208298405807255 49.53802934054395 6.8
    vertex 11.430784477444302 49.82797883420511 0.8000000000000002
    vertex 11.430784477444302 49.82797883420511 6.8
  endloop
endfacet
facet normal -0.9914448613738107 0.1305261922200504 -2.33092952065368e-16
  outer loop
    vertex 13.820733971105467 48.83802934054395 6.8
    vertex 13.773030127910165 48.47568267740042 0.8000000000000002
    vertex 13.773030127910165 48.47568267740042 6.8
  endloop
endfacet
facet normal -0.9914448613738107 0.1305261922200504 -2.33092952065368e-16
  outer loop
    vertex 13.773030127910165 48.47568267740042 0.8000000000000002
    vertex 13.820733971105467 48.83802934054395 6.8
    vertex 13.82073397110547 48.83802934054395 0.8000000000000002
  endloop
endfacet
facet normal 0.13052619222003953 -0.991444861373812 2.2621310138043715e-31
  outer loop
    vertex 12.42073397110547 50.238029340543946 6.8
    vertex 12.05838730796194 50.190325497348645 0.8000000000000002
    vertex 12.42073397110547 50.238029340543946 0.8000000000000002
  endloop
endfacet
facet normal 0.13052619222003953 -0.991444861373812 2.2621310138043715e-31
  outer loop
    vertex 12.05838730796194 50.190325497348645 0.8000000000000002
    vertex 12.42073397110547 50.238029340543946 6.8
    vertex 12.05838730796194 50.190325497348645 6.8
  endloop
endfacet
facet normal 0.6087614290087225 -0.7933533402912339 7.096980041029137e-17
  outer loop
    vertex 11.720733971105469 50.05046490584216 6.8
    vertex 11.430784477444302 49.82797883420511 0.8000000000000002
    vertex 11.720733971105469 50.05046490584216 0.8000000000000002
  endloop
endfacet
facet normal 0.6087614290087225 -0.7933533402912339 7.096980041029137e-17
  outer loop
    vertex 11.430784477444302 49.82797883420511 0.8000000000000002
    vertex 11.720733971105469 50.05046490584216 6.8
    vertex 11.430784477444302 49.82797883420511 6.8
  endloop
endfacet
facet normal 0.6087614290087233 0.7933533402912331 1.4430526083425954e-16
  outer loop
    vertex 11.430784477444302 47.84807984688278 6.8
    vertex 11.72073397110547 47.62559377524573 0.8000000000000002
    vertex 11.430784477444304 47.84807984688278 0.8000000000000002
  endloop
endfacet
facet normal 0.6087614290087233 0.7933533402912331 1.4430526083425954e-16
  outer loop
    vertex 11.72073397110547 47.62559377524573 0.8000000000000002
    vertex 11.430784477444302 47.84807984688278 6.8
    vertex 11.720733971105469 47.62559377524573 6.8
  endloop
endfacet
facet normal 0.7933533402912334 0.6087614290087229 -1.0126557245450696e-16
  outer loop
    vertex 11.208298405807255 48.138029340543945 0.8000000000000002
    vertex 11.430784477444302 47.84807984688278 6.8
    vertex 11.430784477444304 47.84807984688278 0.8000000000000002
  endloop
endfacet
facet normal 0.7933533402912334 0.6087614290087229 -1.0126557245450696e-16
  outer loop
    vertex 11.430784477444302 47.84807984688278 6.8
    vertex 11.208298405807255 48.138029340543945 0.8000000000000002
    vertex 11.208298405807255 48.13802934054395 6.8
  endloop
endfacet
facet normal 0.9238795325112875 0.3826834323650884 -7.133701618267955e-17
  outer loop
    vertex 11.068437814300776 48.47568267740042 0.8000000000000002
    vertex 11.208298405807255 48.13802934054395 6.8
    vertex 11.208298405807255 48.138029340543945 0.8000000000000002
  endloop
endfacet
facet normal 0.9238795325112875 0.3826834323650884 -7.133701618267955e-17
  outer loop
    vertex 11.208298405807255 48.13802934054395 6.8
    vertex 11.068437814300776 48.47568267740042 0.8000000000000002
    vertex 11.068437814300776 48.47568267740042 6.8
  endloop
endfacet
facet normal -0.13052619222003978 0.991444861373812 -1.521682775673799e-17
  outer loop
    vertex 12.420733971105468 47.43802934054395 6.8
    vertex 12.783080634248996 47.48573318373925 0.8000000000000002
    vertex 12.42073397110547 47.43802934054395 0.8000000000000002
  endloop
endfacet
facet normal -0.13052619222003978 0.991444861373812 -1.521682775673799e-17
  outer loop
    vertex 12.783080634248996 47.48573318373925 0.8000000000000002
    vertex 12.420733971105468 47.43802934054395 6.8
    vertex 12.783080634248996 47.48573318373925 6.8
  endloop
endfacet
facet normal 0.13052619222004005 0.991444861373812 3.0687269309421886e-17
  outer loop
    vertex 12.05838730796194 47.48573318373925 6.8
    vertex 12.42073397110547 47.43802934054395 0.8000000000000002
    vertex 12.058387307961942 47.48573318373925 0.8000000000000002
  endloop
endfacet
facet normal 0.13052619222004005 0.991444861373812 3.0687269309421886e-17
  outer loop
    vertex 12.42073397110547 47.43802934054395 0.8000000000000002
    vertex 12.05838730796194 47.48573318373925 6.8
    vertex 12.420733971105468 47.43802934054395 6.8
  endloop
endfacet
facet normal 0.38268343236508995 0.9238795325112867 9.086807517425533e-17
  outer loop
    vertex 11.720733971105469 47.62559377524573 6.8
    vertex 12.058387307961942 47.48573318373925 0.8000000000000002
    vertex 11.72073397110547 47.62559377524573 0.8000000000000002
  endloop
endfacet
facet normal 0.38268343236508995 0.9238795325112867 9.086807517425533e-17
  outer loop
    vertex 12.058387307961942 47.48573318373925 0.8000000000000002
    vertex 11.720733971105469 47.62559377524573 6.8
    vertex 12.05838730796194 47.48573318373925 6.8
  endloop
endfacet
facet normal -0.38268343236509006 0.9238795325112867 -8.975539363077215e-19
  outer loop
    vertex 12.783080634248996 47.48573318373925 6.8
    vertex 13.120733971105468 47.62559377524573 0.8000000000000002
    vertex 12.783080634248996 47.48573318373925 0.8000000000000002
  endloop
endfacet
facet normal -0.38268343236509006 0.9238795325112867 -8.975539363077215e-19
  outer loop
    vertex 13.120733971105468 47.62559377524573 0.8000000000000002
    vertex 12.783080634248996 47.48573318373925 6.8
    vertex 13.120733971105468 47.62559377524573 6.8
  endloop
endfacet
endsolid ADS Analoger Stepper Driver
