solid ADS Analoger Stepper Driver
facet normal -0.6087614393528713 0.7933533323538892 0.0
  outer loop
    vertex -2.8564763099683987 2.9244389605471968 22.299999999999997
    vertex -2.028049197417378 3.560113458742338 17.3
    vertex -2.8564763099683987 2.9244389605471968 17.3
  endloop
endfacet
facet normal -0.6087614393528713 0.7933533323538892 0.0
  outer loop
    vertex -2.028049197417378 3.560113458742338 17.3
    vertex -2.8564763099683987 2.9244389605471968 22.299999999999997
    vertex -2.028049197417378 3.560113458742338 22.299999999999997
  endloop
endfacet
facet normal -0.7933533474726415 0.6087614196497294 0.0
  outer loop
    vertex -3.492150787589335 2.096011832209027 22.299999999999997
    vertex -2.8564763099683987 2.9244389605471968 17.3
    vertex -3.492150787589335 2.096011832209027 17.3
  endloop
endfacet
facet normal -0.7933533474726415 0.6087614196497294 0.0
  outer loop
    vertex -2.8564763099683987 2.9244389605471968 17.3
    vertex -3.492150787589335 2.096011832209027 22.299999999999997
    vertex -2.8564763099683987 2.9244389605471968 22.299999999999997
  endloop
endfacet
facet normal 0.38268344326386994 0.9238795279968643 0.0
  outer loop
    vertex 29.98500186696036 11.724286516299582 22.299999999999997
    vertex 30.949725677286576 11.324684816784998 17.3
    vertex 29.98500186696036 11.724286516299582 17.3
  endloop
endfacet
facet normal 0.38268344326386994 0.9238795279968643 0.0
  outer loop
    vertex 30.949725677286576 11.324684816784998 17.3
    vertex 29.98500186696036 11.724286516299582 22.299999999999997
    vertex 30.949725677286576 11.324684816784998 22.299999999999997
  endloop
endfacet
facet normal 0.6087614373825537 0.793353333865767 0.0
  outer loop
    vertex 30.949725677286576 11.324684816784998 17.3
    vertex 31.778152791416318 10.689010320647277 22.299999999999997
    vertex 31.778152791416318 10.689010320647277 17.3
  endloop
endfacet
facet normal 0.6087614373825537 0.793353333865767 0.0
  outer loop
    vertex 31.778152791416318 10.689010320647277 22.299999999999997
    vertex 30.949725677286576 11.324684816784998 17.3
    vertex 30.949725677286576 11.324684816784998 22.299999999999997
  endloop
endfacet
facet normal -0.8660254037844385 0.5000000000000006 0.0
  outer loop
    vertex 2.125036817835944 0.5694018992255481 22.299999999999997
    vertex 0.5678153653414778 -2.1277847751310683 17.3
    vertex 0.5678153653414778 -2.1277847751310683 22.299999999999997
  endloop
endfacet
facet normal -0.8660254037844385 0.5000000000000006 0.0
  outer loop
    vertex 0.5678153653414778 -2.1277847751310683 17.3
    vertex 2.125036817835944 0.5694018992255481 22.299999999999997
    vertex 2.125036817835944 0.5694018992255481 17.3
  endloop
endfacet
facet normal -0.49999999999999734 -0.8660254037844402 0.0
  outer loop
    vertex 2.125036817835944 0.5694018992255481 22.299999999999997
    vertex -0.5721498565206826 2.1266233517200073 17.3
    vertex 2.125036817835944 0.5694018992255481 17.3
  endloop
endfacet
facet normal -0.49999999999999734 -0.8660254037844402 0.0
  outer loop
    vertex -0.5721498565206826 2.1266233517200073 17.3
    vertex 2.125036817835944 0.5694018992255481 22.299999999999997
    vertex -0.5721498565206826 2.1266233517200073 22.299999999999997
  endloop
endfacet
facet normal 0.8660254037844413 -0.4999999999999959 0.0
  outer loop
    vertex -0.5721498565206826 2.1266233517200073 17.3
    vertex -2.1293713090151263 -0.5705633226366043 22.299999999999997
    vertex -2.1293713090151263 -0.5705633226366043 17.3
  endloop
endfacet
facet normal 0.8660254037844413 -0.4999999999999959 0.0
  outer loop
    vertex -2.1293713090151263 -0.5705633226366043 22.299999999999997
    vertex -0.5721498565206826 2.1266233517200073 17.3
    vertex -0.5721498565206826 2.1266233517200073 22.299999999999997
  endloop
endfacet
facet normal 0.5000000000000014 0.8660254037844377 0.0
  outer loop
    vertex -2.1293713090151263 -0.5705633226366043 17.3
    vertex 0.5678153653414778 -2.1277847751310683 22.299999999999997
    vertex 0.5678153653414778 -2.1277847751310683 17.3
  endloop
endfacet
facet normal 0.5000000000000014 0.8660254037844377 0.0
  outer loop
    vertex 0.5678153653414778 -2.1277847751310683 22.299999999999997
    vertex -2.1293713090151263 -0.5705633226366043 17.3
    vertex -2.1293713090151263 -0.5705633226366043 22.299999999999997
  endloop
endfacet
facet normal -0.6087614290087181 0.7933533402912372 -6.335642358190433e-19
  outer loop
    vertex 27.18195868560585 9.62835017696536 35.300000000000004
    vertex 27.699725638572225 10.025646733460087 22.299999999999997
    vertex 27.18195868560585 9.62835017696536 22.299999999999997
  endloop
endfacet
facet normal -0.6087614290087181 0.7933533402912372 -6.335642358190433e-19
  outer loop
    vertex 27.699725638572225 10.025646733460087 22.299999999999997
    vertex 27.18195868560585 9.62835017696536 35.300000000000004
    vertex 27.699725638572225 10.025646733460087 35.300000000000004
  endloop
endfacet
facet normal -0.3826834323650896 0.923879532511287 0.0
  outer loop
    vertex 27.699725638572225 10.025646733460087 35.300000000000004
    vertex 28.302678025815922 10.275397789721662 22.299999999999997
    vertex 27.699725638572225 10.025646733460087 22.299999999999997
  endloop
endfacet
facet normal -0.3826834323650896 0.923879532511287 0.0
  outer loop
    vertex 28.302678025815922 10.275397789721662 22.299999999999997
    vertex 27.699725638572225 10.025646733460087 35.300000000000004
    vertex 28.302678025815922 10.275397789721662 35.300000000000004
  endloop
endfacet
facet normal -0.13052619222005088 0.9914448613738105 0.0
  outer loop
    vertex 28.302678025815922 10.275397789721662 35.300000000000004
    vertex 28.94972563857222 10.360583223998992 22.299999999999997
    vertex 28.302678025815922 10.275397789721662 22.299999999999997
  endloop
endfacet
facet normal -0.13052619222005088 0.9914448613738105 0.0
  outer loop
    vertex 28.94972563857222 10.360583223998992 22.299999999999997
    vertex 28.302678025815922 10.275397789721662 35.300000000000004
    vertex 28.94972563857222 10.360583223998992 35.300000000000004
  endloop
endfacet
facet normal 0.13052619222005266 0.9914448613738103 0.0
  outer loop
    vertex 28.94972563857222 10.360583223998992 35.300000000000004
    vertex 29.596773251328518 10.275397789721662 22.299999999999997
    vertex 28.94972563857222 10.360583223998992 22.299999999999997
  endloop
endfacet
facet normal 0.13052619222005266 0.9914448613738103 0.0
  outer loop
    vertex 29.596773251328518 10.275397789721662 22.299999999999997
    vertex 28.94972563857222 10.360583223998992 35.300000000000004
    vertex 29.596773251328518 10.275397789721662 35.300000000000004
  endloop
endfacet
facet normal 0.3826834323650896 0.9238795325112867 4.795722092525387e-32
  outer loop
    vertex 29.596773251328518 10.275397789721662 35.300000000000004
    vertex 30.19972563857222 10.025646733460086 22.299999999999997
    vertex 29.596773251328518 10.275397789721662 22.299999999999997
  endloop
endfacet
facet normal 0.3826834323650896 0.9238795325112867 4.795722092525387e-32
  outer loop
    vertex 30.19972563857222 10.025646733460086 22.299999999999997
    vertex 29.596773251328518 10.275397789721662 35.300000000000004
    vertex 30.19972563857222 10.025646733460086 35.300000000000004
  endloop
endfacet
facet normal 0.6087614290087211 0.7933533402912347 -7.466169384560372e-32
  outer loop
    vertex 30.19972563857222 10.025646733460086 22.299999999999997
    vertex 30.71749259153859 9.628350176965357 35.300000000000004
    vertex 30.71749259153859 9.628350176965357 22.299999999999997
  endloop
endfacet
facet normal 0.6087614290087211 0.7933533402912347 -7.466169384560372e-32
  outer loop
    vertex 30.71749259153859 9.628350176965357 35.300000000000004
    vertex 30.19972563857222 10.025646733460086 22.299999999999997
    vertex 30.19972563857222 10.025646733460086 35.300000000000004
  endloop
endfacet
facet normal 0.7933533402912358 0.6087614290087197 -9.144712863794453e-32
  outer loop
    vertex 30.71749259153859 9.628350176965357 22.299999999999997
    vertex 31.114789148033317 9.110583223998988 35.300000000000004
    vertex 31.114789148033317 9.110583223998988 22.299999999999997
  endloop
endfacet
facet normal 0.7933533402912358 0.6087614290087197 -9.144712863794453e-32
  outer loop
    vertex 31.114789148033317 9.110583223998988 35.300000000000004
    vertex 30.71749259153859 9.628350176965357 22.299999999999997
    vertex 30.71749259153859 9.628350176965357 35.300000000000004
  endloop
endfacet
facet normal 0.9238795325112853 0.3826834323650933 0.0
  outer loop
    vertex 31.114789148033317 9.110583223998988 22.299999999999997
    vertex 31.364540204294897 8.507630836755292 35.300000000000004
    vertex 31.364540204294897 8.507630836755292 22.299999999999997
  endloop
endfacet
facet normal 0.9238795325112853 0.3826834323650933 0.0
  outer loop
    vertex 31.364540204294897 8.507630836755292 35.300000000000004
    vertex 31.114789148033317 9.110583223998988 22.299999999999997
    vertex 31.114789148033317 9.110583223998988 35.300000000000004
  endloop
endfacet
facet normal 0.99144486137381 0.1305261922200551 -9.330388988784635e-32
  outer loop
    vertex 31.364540204294897 8.507630836755292 22.299999999999997
    vertex 31.449725638572225 7.86058322399899 35.300000000000004
    vertex 31.449725638572225 7.86058322399899 22.299999999999997
  endloop
endfacet
facet normal 0.99144486137381 0.1305261922200551 -9.330388988784635e-32
  outer loop
    vertex 31.449725638572225 7.86058322399899 35.300000000000004
    vertex 31.364540204294897 8.507630836755292 22.299999999999997
    vertex 31.364540204294897 8.507630836755292 35.300000000000004
  endloop
endfacet
facet normal 0.9914448613738105 -0.13052619222005138 8.24436393299716e-32
  outer loop
    vertex 31.449725638572225 7.86058322399899 22.299999999999997
    vertex 31.364540204294897 7.213535611242689 35.300000000000004
    vertex 31.364540204294897 7.213535611242689 22.299999999999997
  endloop
endfacet
facet normal 0.9914448613738105 -0.13052619222005138 8.24436393299716e-32
  outer loop
    vertex 31.364540204294897 7.213535611242689 35.300000000000004
    vertex 31.449725638572225 7.86058322399899 22.299999999999997
    vertex 31.449725638572225 7.86058322399899 35.300000000000004
  endloop
endfacet
facet normal 0.9238795325112841 -0.38268343236509617 -1.007855153755618e-18
  outer loop
    vertex 31.364540204294897 7.213535611242689 22.299999999999997
    vertex 31.114789148033317 6.610583223998988 35.300000000000004
    vertex 31.114789148033317 6.610583223998988 22.299999999999997
  endloop
endfacet
facet normal 0.9238795325112841 -0.38268343236509617 -1.007855153755618e-18
  outer loop
    vertex 31.114789148033317 6.610583223998988 35.300000000000004
    vertex 31.364540204294897 7.213535611242689 22.299999999999997
    vertex 31.364540204294897 7.213535611242689 35.300000000000004
  endloop
endfacet
facet normal 0.7933533402912378 -0.6087614290087173 0.0
  outer loop
    vertex 31.114789148033317 6.610583223998988 35.300000000000004
    vertex 30.71749259153859 6.092816271032621 22.299999999999997
    vertex 31.114789148033317 6.610583223998988 22.299999999999997
  endloop
endfacet
facet normal 0.7933533402912378 -0.6087614290087173 0.0
  outer loop
    vertex 30.71749259153859 6.092816271032621 22.299999999999997
    vertex 31.114789148033317 6.610583223998988 35.300000000000004
    vertex 30.71749259153859 6.092816271032621 35.300000000000004
  endloop
endfacet
facet normal 0.6087614290087214 -0.7933533402912346 0.0
  outer loop
    vertex 30.71749259153859 6.092816271032621 35.300000000000004
    vertex 30.199725638572225 5.695519714537894 22.299999999999997
    vertex 30.71749259153859 6.092816271032621 22.299999999999997
  endloop
endfacet
facet normal 0.6087614290087214 -0.7933533402912346 0.0
  outer loop
    vertex 30.199725638572225 5.695519714537894 22.299999999999997
    vertex 30.71749259153859 6.092816271032621 35.300000000000004
    vertex 30.199725638572225 5.695519714537894 35.300000000000004
  endloop
endfacet
facet normal 0.38268343236508906 -0.9238795325112872 1.2283690138354302e-32
  outer loop
    vertex 30.199725638572225 5.695519714537894 35.300000000000004
    vertex 29.596773251328525 5.445768658276317 22.299999999999997
    vertex 30.199725638572225 5.695519714537894 22.299999999999997
  endloop
endfacet
facet normal 0.38268343236508906 -0.9238795325112872 1.2283690138354302e-32
  outer loop
    vertex 29.596773251328525 5.445768658276317 22.299999999999997
    vertex 30.199725638572225 5.695519714537894 35.300000000000004
    vertex 29.596773251328525 5.445768658276317 35.300000000000004
  endloop
endfacet
facet normal 0.13052619222005138 -0.9914448613738105 -2.0517742369684294e-19
  outer loop
    vertex 29.596773251328525 5.445768658276317 35.300000000000004
    vertex 28.94972563857222 5.360583223998989 22.299999999999997
    vertex 29.596773251328525 5.445768658276317 22.299999999999997
  endloop
endfacet
facet normal 0.13052619222005138 -0.9914448613738105 -2.0517742369684294e-19
  outer loop
    vertex 28.94972563857222 5.360583223998989 22.299999999999997
    vertex 29.596773251328525 5.445768658276317 35.300000000000004
    vertex 28.94972563857222 5.360583223998989 35.300000000000004
  endloop
endfacet
facet normal -0.13052619222005213 -0.9914448613738104 0.0
  outer loop
    vertex 28.94972563857222 5.360583223998989 35.300000000000004
    vertex 28.302678025815922 5.445768658276318 22.299999999999997
    vertex 28.94972563857222 5.360583223998989 22.299999999999997
  endloop
endfacet
facet normal -0.13052619222005213 -0.9914448613738104 0.0
  outer loop
    vertex 28.302678025815922 5.445768658276318 22.299999999999997
    vertex 28.94972563857222 5.360583223998989 35.300000000000004
    vertex 28.302678025815922 5.445768658276318 35.300000000000004
  endloop
endfacet
facet normal -0.3826834323650901 -0.9238795325112866 6.195628852130461e-32
  outer loop
    vertex 28.302678025815922 5.445768658276318 35.300000000000004
    vertex 27.699725638572225 5.695519714537892 22.299999999999997
    vertex 28.302678025815922 5.445768658276318 22.299999999999997
  endloop
endfacet
facet normal -0.3826834323650901 -0.9238795325112866 6.195628852130461e-32
  outer loop
    vertex 27.699725638572225 5.695519714537892 22.299999999999997
    vertex 28.302678025815922 5.445768658276318 35.300000000000004
    vertex 27.699725638572225 5.695519714537892 35.300000000000004
  endloop
endfacet
facet normal -0.608761429008721 -0.7933533402912349 7.466169384560372e-32
  outer loop
    vertex 27.181958685605856 6.092816271032621 35.300000000000004
    vertex 27.699725638572225 5.695519714537892 22.299999999999997
    vertex 27.699725638572225 5.695519714537892 35.300000000000004
  endloop
endfacet
facet normal -0.608761429008721 -0.7933533402912349 7.466169384560372e-32
  outer loop
    vertex 27.699725638572225 5.695519714537892 22.299999999999997
    vertex 27.181958685605856 6.092816271032621 35.300000000000004
    vertex 27.181958685605856 6.092816271032621 22.299999999999997
  endloop
endfacet
facet normal -0.7933533402912356 -0.6087614290087201 -8.919625631095131e-32
  outer loop
    vertex 26.78466212911113 6.610583223998989 35.300000000000004
    vertex 27.181958685605856 6.092816271032621 22.299999999999997
    vertex 27.181958685605856 6.092816271032621 35.300000000000004
  endloop
endfacet
facet normal -0.7933533402912356 -0.6087614290087201 -8.919625631095131e-32
  outer loop
    vertex 27.181958685605856 6.092816271032621 22.299999999999997
    vertex 26.78466212911113 6.610583223998989 35.300000000000004
    vertex 26.78466212911113 6.610583223998989 22.299999999999997
  endloop
endfacet
facet normal -0.9238795325112854 -0.38268343236509295 0.0
  outer loop
    vertex 26.53491107284955 7.213535611242689 35.300000000000004
    vertex 26.78466212911113 6.610583223998989 22.299999999999997
    vertex 26.78466212911113 6.610583223998989 35.300000000000004
  endloop
endfacet
facet normal -0.9238795325112854 -0.38268343236509295 0.0
  outer loop
    vertex 26.78466212911113 6.610583223998989 22.299999999999997
    vertex 26.53491107284955 7.213535611242689 35.300000000000004
    vertex 26.53491107284955 7.213535611242689 22.299999999999997
  endloop
endfacet
facet normal -0.991444861373811 -0.1305261922200468 -2.160969622258932e-19
  outer loop
    vertex 26.44972563857223 7.860583223998993 35.300000000000004
    vertex 26.53491107284955 7.213535611242689 22.299999999999997
    vertex 26.53491107284955 7.213535611242689 35.300000000000004
  endloop
endfacet
facet normal -0.991444861373811 -0.1305261922200468 -2.160969622258932e-19
  outer loop
    vertex 26.53491107284955 7.213535611242689 22.299999999999997
    vertex 26.44972563857223 7.860583223998993 35.300000000000004
    vertex 26.44972563857223 7.860583223998993 22.299999999999997
  endloop
endfacet
facet normal -0.9914448613738105 0.13052619222005138 8.24436393299716e-32
  outer loop
    vertex 26.534911072849553 8.507630836755295 35.300000000000004
    vertex 26.44972563857223 7.860583223998993 22.299999999999997
    vertex 26.44972563857223 7.860583223998993 35.300000000000004
  endloop
endfacet
facet normal -0.9914448613738105 0.13052619222005138 8.24436393299716e-32
  outer loop
    vertex 26.44972563857223 7.860583223998993 22.299999999999997
    vertex 26.534911072849553 8.507630836755295 35.300000000000004
    vertex 26.534911072849553 8.507630836755295 22.299999999999997
  endloop
endfacet
facet normal -0.923879532511287 0.3826834323650897 1.00785515375568e-18
  outer loop
    vertex 26.78466212911113 9.11058322399899 35.300000000000004
    vertex 26.534911072849553 8.507630836755295 22.299999999999997
    vertex 26.534911072849553 8.507630836755295 35.300000000000004
  endloop
endfacet
facet normal -0.923879532511287 0.3826834323650897 1.00785515375568e-18
  outer loop
    vertex 26.534911072849553 8.507630836755295 22.299999999999997
    vertex 26.78466212911113 9.11058322399899 35.300000000000004
    vertex 26.78466212911113 9.11058322399899 22.299999999999997
  endloop
endfacet
facet normal -0.7933533402912377 0.6087614290087173 9.332711730700432e-33
  outer loop
    vertex 26.78466212911113 9.11058322399899 35.300000000000004
    vertex 27.18195868560585 9.62835017696536 22.299999999999997
    vertex 26.78466212911113 9.11058322399899 22.299999999999997
  endloop
endfacet
facet normal -0.7933533402912377 0.6087614290087173 9.332711730700432e-33
  outer loop
    vertex 27.18195868560585 9.62835017696536 22.299999999999997
    vertex 26.78466212911113 9.11058322399899 35.300000000000004
    vertex 27.18195868560585 9.62835017696536 35.300000000000004
  endloop
endfacet
facet normal 0.0 0.0 1.0
  outer loop
    vertex 26.78466212911113 6.610583223998989 37.3
    vertex 26.44972563857223 7.860583223998993 37.3
    vertex 26.53491107284955 7.213535611242689 37.3
  endloop
endfacet
facet normal 0.0 0.0 1.0
  outer loop
    vertex 26.44972563857223 7.860583223998993 37.3
    vertex 26.78466212911113 6.610583223998989 37.3
    vertex 27.181958685605856 6.092816271032621 37.3
  endloop
endfacet
facet normal 0.0 0.0 1.0
  outer loop
    vertex 26.44972563857223 7.860583223998993 37.3
    vertex 27.181958685605856 6.092816271032621 37.3
    vertex 26.534911072849553 8.507630836755295 37.3
  endloop
endfacet
facet normal 0.0 0.0 1.0
  outer loop
    vertex 26.534911072849553 8.507630836755295 37.3
    vertex 27.181958685605856 6.092816271032621 37.3
    vertex 27.699725638572225 5.695519714537892 37.3
  endloop
endfacet
facet normal 0.0 0.0 1.0
  outer loop
    vertex 26.534911072849553 8.507630836755295 37.3
    vertex 27.699725638572225 5.695519714537892 37.3
    vertex 26.78466212911113 9.11058322399899 37.3
  endloop
endfacet
facet normal 0.0 0.0 1.0
  outer loop
    vertex 26.78466212911113 9.11058322399899 37.3
    vertex 27.699725638572225 5.695519714537892 37.3
    vertex 28.302678025815922 5.445768658276318 37.3
  endloop
endfacet
facet normal 0.0 0.0 1.0
  outer loop
    vertex 26.78466212911113 9.11058322399899 37.3
    vertex 28.302678025815922 5.445768658276318 37.3
    vertex 27.18195868560585 9.62835017696536 37.3
  endloop
endfacet
facet normal 0.0 0.0 1.0
  outer loop
    vertex 27.18195868560585 9.62835017696536 37.3
    vertex 28.302678025815922 5.445768658276318 37.3
    vertex 27.699725638572225 10.025646733460087 37.3
  endloop
endfacet
facet normal 0.0 0.0 1.0
  outer loop
    vertex 27.699725638572225 10.025646733460087 37.3
    vertex 28.302678025815922 5.445768658276318 37.3
    vertex 28.94972563857222 5.360583223998989 37.3
  endloop
endfacet
facet normal 0.0 0.0 1.0
  outer loop
    vertex 27.699725638572225 10.025646733460087 37.3
    vertex 28.94972563857222 5.360583223998989 37.3
    vertex 29.596773251328525 5.445768658276317 37.3
  endloop
endfacet
facet normal 0.0 0.0 1.0
  outer loop
    vertex 27.699725638572225 10.025646733460087 37.3
    vertex 29.596773251328525 5.445768658276317 37.3
    vertex 28.302678025815922 10.275397789721662 37.3
  endloop
endfacet
facet normal 0.0 0.0 1.0
  outer loop
    vertex 28.302678025815922 10.275397789721662 37.3
    vertex 29.596773251328525 5.445768658276317 37.3
    vertex 30.199725638572225 5.695519714537894 37.3
  endloop
endfacet
facet normal 0.0 0.0 1.0
  outer loop
    vertex 28.302678025815922 10.275397789721662 37.3
    vertex 30.199725638572225 5.695519714537894 37.3
    vertex 28.94972563857222 10.360583223998992 37.3
  endloop
endfacet
facet normal 0.0 0.0 1.0
  outer loop
    vertex 28.94972563857222 10.360583223998992 37.3
    vertex 30.199725638572225 5.695519714537894 37.3
    vertex 29.596773251328518 10.275397789721662 37.3
  endloop
endfacet
facet normal 0.0 0.0 1.0
  outer loop
    vertex 29.596773251328518 10.275397789721662 37.3
    vertex 30.199725638572225 5.695519714537894 37.3
    vertex 30.71749259153859 6.092816271032621 37.3
  endloop
endfacet
facet normal 0.0 0.0 1.0
  outer loop
    vertex 29.596773251328518 10.275397789721662 37.3
    vertex 30.71749259153859 6.092816271032621 37.3
    vertex 30.19972563857222 10.025646733460086 37.3
  endloop
endfacet
facet normal 0.0 0.0 1.0
  outer loop
    vertex 30.19972563857222 10.025646733460086 37.3
    vertex 30.71749259153859 6.092816271032621 37.3
    vertex 31.114789148033317 6.610583223998988 37.3
  endloop
endfacet
facet normal 0.0 0.0 1.0
  outer loop
    vertex 30.19972563857222 10.025646733460086 37.3
    vertex 31.114789148033317 6.610583223998988 37.3
    vertex 31.364540204294897 7.213535611242689 37.3
  endloop
endfacet
facet normal 0.0 0.0 1.0
  outer loop
    vertex 30.19972563857222 10.025646733460086 37.3
    vertex 31.364540204294897 7.213535611242689 37.3
    vertex 30.71749259153859 9.628350176965357 37.3
  endloop
endfacet
facet normal 0.0 0.0 1.0
  outer loop
    vertex 30.71749259153859 9.628350176965357 37.3
    vertex 31.364540204294897 7.213535611242689 37.3
    vertex 31.114789148033317 9.110583223998988 37.3
  endloop
endfacet
facet normal 0.0 0.0 1.0
  outer loop
    vertex 31.114789148033317 9.110583223998988 37.3
    vertex 31.364540204294897 7.213535611242689 37.3
    vertex 31.449725638572225 7.86058322399899 37.3
  endloop
endfacet
facet normal 0.0 0.0 1.0
  outer loop
    vertex 31.114789148033317 9.110583223998988 37.3
    vertex 31.449725638572225 7.86058322399899 37.3
    vertex 31.364540204294897 8.507630836755292 37.3
  endloop
endfacet
facet normal 0.9062353804970511 -0.3753749853042265 0.19450207079416104
  outer loop
    vertex 31.557725369552706 7.161771802222185 36.300000000000004
    vertex 31.114789148033317 6.610583223998988 37.3
    vertex 31.287994228790204 6.51058322399899 36.300000000000004
  endloop
endfacet
facet normal 0.9062353804970511 -0.3753749853042265 0.19450207079416104
  outer loop
    vertex 31.114789148033317 6.610583223998988 37.3
    vertex 31.557725369552706 7.161771802222185 36.300000000000004
    vertex 31.364540204294897 7.213535611242689 37.3
  endloop
endfacet
facet normal -0.1280334170298599 -0.9725103539708152 0.19450207079416365
  outer loop
    vertex 28.94972563857222 5.360583223998989 37.3
    vertex 28.250914216795408 5.252583493018505 36.300000000000004
    vertex 28.949725638572218 5.160583223998989 36.300000000000004
  endloop
endfacet
facet normal -0.1280334170298599 -0.9725103539708152 0.19450207079416365
  outer loop
    vertex 28.250914216795408 5.252583493018505 36.300000000000004
    vertex 28.94972563857222 5.360583223998989 37.3
    vertex 28.302678025815922 5.445768658276318 37.3
  endloop
endfacet
facet normal 0.12803341702986004 -0.9725103539708154 0.19450207079416248
  outer loop
    vertex 29.596773251328525 5.445768658276317 37.3
    vertex 28.949725638572218 5.160583223998989 36.300000000000004
    vertex 29.648537060349025 5.252583493018505 36.300000000000004
  endloop
endfacet
facet normal 0.12803341702986004 -0.9725103539708154 0.19450207079416248
  outer loop
    vertex 28.949725638572218 5.160583223998989 36.300000000000004
    vertex 29.596773251328525 5.445768658276317 37.3
    vertex 28.94972563857222 5.360583223998989 37.3
  endloop
endfacet
facet normal 0.37537498530422164 -0.906235380497053 0.19450207079416196
  outer loop
    vertex 30.199725638572225 5.695519714537894 37.3
    vertex 29.648537060349025 5.252583493018505 36.300000000000004
    vertex 30.29972563857222 5.522314633781003 36.300000000000004
  endloop
endfacet
facet normal 0.37537498530422164 -0.906235380497053 0.19450207079416196
  outer loop
    vertex 29.648537060349025 5.252583493018505 36.300000000000004
    vertex 30.199725638572225 5.695519714537894 37.3
    vertex 29.596773251328525 5.445768658276317 37.3
  endloop
endfacet
facet normal 0.597135368666593 -0.7782019634671937 0.1945020707941607
  outer loop
    vertex 30.71749259153859 6.092816271032621 37.3
    vertex 30.29972563857222 5.522314633781003 36.300000000000004
    vertex 30.858913947775907 5.951394914795312 36.300000000000004
  endloop
endfacet
facet normal 0.597135368666593 -0.7782019634671937 0.1945020707941607
  outer loop
    vertex 30.29972563857222 5.522314633781003 36.300000000000004
    vertex 30.71749259153859 6.092816271032621 37.3
    vertex 30.199725638572225 5.695519714537894 37.3
  endloop
endfacet
facet normal 0.7782019634671955 -0.5971353686665904 0.19450207079416199
  outer loop
    vertex 31.114789148033317 6.610583223998988 37.3
    vertex 30.858913947775907 5.951394914795312 36.300000000000004
    vertex 31.287994228790204 6.51058322399899 36.300000000000004
  endloop
endfacet
facet normal 0.7782019634671955 -0.5971353686665904 0.19450207079416199
  outer loop
    vertex 30.858913947775907 5.951394914795312 36.300000000000004
    vertex 31.114789148033317 6.610583223998988 37.3
    vertex 30.71749259153859 6.092816271032621 37.3
  endloop
endfacet
facet normal -0.5971353686665926 0.7782019634671938 0.1945020707941614
  outer loop
    vertex 27.18195868560585 9.62835017696536 37.3
    vertex 27.59972563857222 10.198851814216974 36.300000000000004
    vertex 27.040537329368536 9.769771533202663 36.300000000000004
  endloop
endfacet
facet normal -0.5971353686665926 0.7782019634671938 0.1945020707941614
  outer loop
    vertex 27.59972563857222 10.198851814216974 36.300000000000004
    vertex 27.18195868560585 9.62835017696536 37.3
    vertex 27.699725638572225 10.025646733460087 37.3
  endloop
endfacet
facet normal -0.3753749853042219 0.9062353804970527 0.194502070794162
  outer loop
    vertex 27.699725638572225 10.025646733460087 37.3
    vertex 28.250914216795415 10.468582954979475 36.300000000000004
    vertex 27.59972563857222 10.198851814216974 36.300000000000004
  endloop
endfacet
facet normal -0.3753749853042219 0.9062353804970527 0.194502070794162
  outer loop
    vertex 28.250914216795415 10.468582954979475 36.300000000000004
    vertex 27.699725638572225 10.025646733460087 37.3
    vertex 28.302678025815922 10.275397789721662 37.3
  endloop
endfacet
facet normal -0.37537498530422353 -0.9062353804970517 0.19450207079416415
  outer loop
    vertex 28.302678025815922 5.445768658276318 37.3
    vertex 27.59972563857222 5.522314633781005 36.300000000000004
    vertex 28.250914216795408 5.252583493018505 36.300000000000004
  endloop
endfacet
facet normal -0.37537498530422353 -0.9062353804970517 0.19450207079416415
  outer loop
    vertex 27.59972563857222 5.522314633781005 36.300000000000004
    vertex 28.302678025815922 5.445768658276318 37.3
    vertex 27.699725638572225 5.695519714537892 37.3
  endloop
endfacet
facet normal -0.5971353686665948 -0.7782019634671921 0.19450207079416243
  outer loop
    vertex 27.699725638572225 5.695519714537892 37.3
    vertex 27.040537329368547 5.951394914795309 36.300000000000004
    vertex 27.59972563857222 5.522314633781005 36.300000000000004
  endloop
endfacet
facet normal -0.5971353686665948 -0.7782019634671921 0.19450207079416243
  outer loop
    vertex 27.040537329368547 5.951394914795309 36.300000000000004
    vertex 27.699725638572225 5.695519714537892 37.3
    vertex 27.181958685605856 6.092816271032621 37.3
  endloop
endfacet
facet normal -0.12803341702986043 0.9725103539708153 0.19450207079416307
  outer loop
    vertex 28.302678025815922 10.275397789721662 37.3
    vertex 28.94972563857223 10.560583223998991 36.300000000000004
    vertex 28.250914216795415 10.468582954979475 36.300000000000004
  endloop
endfacet
facet normal -0.12803341702986043 0.9725103539708153 0.19450207079416307
  outer loop
    vertex 28.94972563857223 10.560583223998991 36.300000000000004
    vertex 28.302678025815922 10.275397789721662 37.3
    vertex 28.94972563857222 10.360583223998992 37.3
  endloop
endfacet
facet normal -0.7782019634671911 -0.5971353686665956 0.19450207079416335
  outer loop
    vertex 27.181958685605856 6.092816271032621 37.3
    vertex 26.611457048354236 6.510583223998987 36.300000000000004
    vertex 27.040537329368547 5.951394914795309 36.300000000000004
  endloop
endfacet
facet normal -0.7782019634671911 -0.5971353686665956 0.19450207079416335
  outer loop
    vertex 26.611457048354236 6.510583223998987 36.300000000000004
    vertex 27.181958685605856 6.092816271032621 37.3
    vertex 26.78466212911113 6.610583223998989 37.3
  endloop
endfacet
facet normal 0.12803341702986024 0.972510353970815 0.1945020707941648
  outer loop
    vertex 28.94972563857222 10.360583223998992 37.3
    vertex 29.64853706034903 10.468582954979478 36.300000000000004
    vertex 28.94972563857223 10.560583223998991 36.300000000000004
  endloop
endfacet
facet normal 0.12803341702986024 0.972510353970815 0.1945020707941648
  outer loop
    vertex 29.64853706034903 10.468582954979478 36.300000000000004
    vertex 28.94972563857222 10.360583223998992 37.3
    vertex 29.596773251328518 10.275397789721662 37.3
  endloop
endfacet
facet normal -0.9062353804970519 -0.3753749853042232 0.19450207079416396
  outer loop
    vertex 26.78466212911113 6.610583223998989 37.3
    vertex 26.341725907591737 7.161771802222182 36.300000000000004
    vertex 26.611457048354236 6.510583223998987 36.300000000000004
  endloop
endfacet
facet normal -0.9062353804970519 -0.3753749853042232 0.19450207079416396
  outer loop
    vertex 26.341725907591737 7.161771802222182 36.300000000000004
    vertex 26.78466212911113 6.610583223998989 37.3
    vertex 26.53491107284955 7.213535611242689 37.3
  endloop
endfacet
facet normal 0.3753749853042237 0.9062353804970515 0.19450207079416496
  outer loop
    vertex 29.596773251328518 10.275397789721662 37.3
    vertex 30.29972563857222 10.198851814216976 36.300000000000004
    vertex 29.64853706034903 10.468582954979478 36.300000000000004
  endloop
endfacet
facet normal 0.3753749853042237 0.9062353804970515 0.19450207079416496
  outer loop
    vertex 30.29972563857222 10.198851814216976 36.300000000000004
    vertex 29.596773251328518 10.275397789721662 37.3
    vertex 30.19972563857222 10.025646733460086 37.3
  endloop
endfacet
facet normal -0.9725103539708158 -0.1280334170298572 0.19450207079416304
  outer loop
    vertex 26.53491107284955 7.213535611242689 37.3
    vertex 26.249725638572222 7.860583223998986 36.300000000000004
    vertex 26.341725907591737 7.161771802222182 36.300000000000004
  endloop
endfacet
facet normal -0.9725103539708158 -0.1280334170298572 0.19450207079416304
  outer loop
    vertex 26.249725638572222 7.860583223998986 36.300000000000004
    vertex 26.53491107284955 7.213535611242689 37.3
    vertex 26.44972563857223 7.860583223998993 37.3
  endloop
endfacet
facet normal 0.5971353686665947 0.7782019634671917 0.19450207079416265
  outer loop
    vertex 30.8589139477759 9.76977153320267 36.300000000000004
    vertex 30.19972563857222 10.025646733460086 37.3
    vertex 30.71749259153859 9.628350176965357 37.3
  endloop
endfacet
facet normal 0.5971353686665947 0.7782019634671917 0.19450207079416265
  outer loop
    vertex 30.19972563857222 10.025646733460086 37.3
    vertex 30.8589139477759 9.76977153320267 36.300000000000004
    vertex 30.29972563857222 10.198851814216976 36.300000000000004
  endloop
endfacet
facet normal -0.9725103539708155 0.12803341702985918 0.1945020707941633
  outer loop
    vertex 26.534911072849553 8.507630836755295 37.3
    vertex 26.249725638572222 7.860583223998986 36.300000000000004
    vertex 26.44972563857223 7.860583223998993 37.3
  endloop
endfacet
facet normal -0.9725103539708155 0.12803341702985918 0.1945020707941633
  outer loop
    vertex 26.249725638572222 7.860583223998986 36.300000000000004
    vertex 26.534911072849553 8.507630836755295 37.3
    vertex 26.341725907591734 8.559394645775793 36.300000000000004
  endloop
endfacet
facet normal 0.7782019634671913 0.5971353686665951 0.19450207079416354
  outer loop
    vertex 31.287994228790204 9.210583223998993 36.300000000000004
    vertex 30.71749259153859 9.628350176965357 37.3
    vertex 31.114789148033317 9.110583223998988 37.3
  endloop
endfacet
facet normal 0.7782019634671913 0.5971353686665951 0.19450207079416354
  outer loop
    vertex 30.71749259153859 9.628350176965357 37.3
    vertex 31.287994228790204 9.210583223998993 36.300000000000004
    vertex 30.8589139477759 9.76977153320267 36.300000000000004
  endloop
endfacet
facet normal -0.9062353804970533 0.3753749853042205 0.19450207079416268
  outer loop
    vertex 26.78466212911113 9.11058322399899 37.3
    vertex 26.341725907591734 8.559394645775793 36.300000000000004
    vertex 26.534911072849553 8.507630836755295 37.3
  endloop
endfacet
facet normal -0.9062353804970533 0.3753749853042205 0.19450207079416268
  outer loop
    vertex 26.341725907591734 8.559394645775793 36.300000000000004
    vertex 26.78466212911113 9.11058322399899 37.3
    vertex 26.611457048354236 9.210583223998984 36.300000000000004
  endloop
endfacet
facet normal 0.9062353804970519 0.37537498530422325 0.19450207079416396
  outer loop
    vertex 31.557725369552706 8.559394645775798 36.300000000000004
    vertex 31.114789148033317 9.110583223998988 37.3
    vertex 31.364540204294897 8.507630836755292 37.3
  endloop
endfacet
facet normal 0.9062353804970519 0.37537498530422325 0.19450207079416396
  outer loop
    vertex 31.114789148033317 9.110583223998988 37.3
    vertex 31.557725369552706 8.559394645775798 36.300000000000004
    vertex 31.287994228790204 9.210583223998993 36.300000000000004
  endloop
endfacet
facet normal -0.7782019634671956 0.5971353686665902 0.19450207079416185
  outer loop
    vertex 26.78466212911113 9.11058322399899 37.3
    vertex 27.040537329368536 9.769771533202663 36.300000000000004
    vertex 26.611457048354236 9.210583223998984 36.300000000000004
  endloop
endfacet
facet normal -0.7782019634671956 0.5971353686665902 0.19450207079416185
  outer loop
    vertex 27.040537329368536 9.769771533202663 36.300000000000004
    vertex 26.78466212911113 9.11058322399899 37.3
    vertex 27.18195868560585 9.62835017696536 37.3
  endloop
endfacet
facet normal 0.9725103539708155 0.12803341702986124 0.19450207079416057
  outer loop
    vertex 31.557725369552706 8.559394645775798 36.300000000000004
    vertex 31.449725638572225 7.86058322399899 37.3
    vertex 31.649725638572217 7.86058322399899 36.300000000000004
  endloop
endfacet
facet normal 0.9725103539708155 0.12803341702986124 0.19450207079416057
  outer loop
    vertex 31.449725638572225 7.86058322399899 37.3
    vertex 31.557725369552706 8.559394645775798 36.300000000000004
    vertex 31.364540204294897 8.507630836755292 37.3
  endloop
endfacet
facet normal 0.9725103539708161 -0.12803341702985885 0.19450207079415963
  outer loop
    vertex 31.649725638572217 7.86058322399899 36.300000000000004
    vertex 31.364540204294897 7.213535611242689 37.3
    vertex 31.557725369552706 7.161771802222185 36.300000000000004
  endloop
endfacet
facet normal 0.9725103539708161 -0.12803341702985885 0.19450207079415963
  outer loop
    vertex 31.364540204294897 7.213535611242689 37.3
    vertex 31.649725638572217 7.86058322399899 36.300000000000004
    vertex 31.449725638572225 7.86058322399899 37.3
  endloop
endfacet
facet normal -0.12803341702985988 -0.972510353970815 -0.19450207079416415
  outer loop
    vertex 28.949725638572218 5.160583223998989 36.300000000000004
    vertex 28.302678025815922 5.445768658276318 35.300000000000004
    vertex 28.94972563857222 5.360583223998989 35.300000000000004
  endloop
endfacet
facet normal -0.12803341702985988 -0.972510353970815 -0.19450207079416415
  outer loop
    vertex 28.302678025815922 5.445768658276318 35.300000000000004
    vertex 28.949725638572218 5.160583223998989 36.300000000000004
    vertex 28.250914216795408 5.252583493018505 36.300000000000004
  endloop
endfacet
facet normal 0.12803341702985999 -0.9725103539708152 -0.194502070794163
  outer loop
    vertex 29.648537060349025 5.252583493018505 36.300000000000004
    vertex 28.94972563857222 5.360583223998989 35.300000000000004
    vertex 29.596773251328525 5.445768658276317 35.300000000000004
  endloop
endfacet
facet normal 0.12803341702985999 -0.9725103539708152 -0.194502070794163
  outer loop
    vertex 28.94972563857222 5.360583223998989 35.300000000000004
    vertex 29.648537060349025 5.252583493018505 36.300000000000004
    vertex 28.949725638572218 5.160583223998989 36.300000000000004
  endloop
endfacet
facet normal 0.37537498530422164 -0.9062353804970528 -0.19450207079416248
  outer loop
    vertex 30.29972563857222 5.522314633781003 36.300000000000004
    vertex 29.596773251328525 5.445768658276317 35.300000000000004
    vertex 30.199725638572225 5.695519714537894 35.300000000000004
  endloop
endfacet
facet normal 0.37537498530422164 -0.9062353804970528 -0.19450207079416248
  outer loop
    vertex 29.596773251328525 5.445768658276317 35.300000000000004
    vertex 30.29972563857222 5.522314633781003 36.300000000000004
    vertex 29.648537060349025 5.252583493018505 36.300000000000004
  endloop
endfacet
facet normal 0.12803341702986015 0.9725103539708148 -0.19450207079416534
  outer loop
    vertex 28.94972563857223 10.560583223998991 36.300000000000004
    vertex 29.596773251328518 10.275397789721662 35.300000000000004
    vertex 28.94972563857222 10.360583223998992 35.300000000000004
  endloop
endfacet
facet normal 0.12803341702986015 0.9725103539708148 -0.19450207079416534
  outer loop
    vertex 29.596773251328518 10.275397789721662 35.300000000000004
    vertex 28.94972563857223 10.560583223998991 36.300000000000004
    vertex 29.64853706034903 10.468582954979478 36.300000000000004
  endloop
endfacet
facet normal -0.5971353686665926 0.7782019634671936 -0.19450207079416193
  outer loop
    vertex 27.040537329368536 9.769771533202663 36.300000000000004
    vertex 27.699725638572225 10.025646733460087 35.300000000000004
    vertex 27.18195868560585 9.62835017696536 35.300000000000004
  endloop
endfacet
facet normal -0.5971353686665926 0.7782019634671936 -0.19450207079416193
  outer loop
    vertex 27.699725638572225 10.025646733460087 35.300000000000004
    vertex 27.040537329368536 9.769771533202663 36.300000000000004
    vertex 27.59972563857222 10.198851814216974 36.300000000000004
  endloop
endfacet
facet normal -0.12803341702986037 0.9725103539708151 -0.19450207079416362
  outer loop
    vertex 28.250914216795415 10.468582954979475 36.300000000000004
    vertex 28.94972563857222 10.360583223998992 35.300000000000004
    vertex 28.302678025815922 10.275397789721662 35.300000000000004
  endloop
endfacet
facet normal -0.12803341702986037 0.9725103539708151 -0.19450207079416362
  outer loop
    vertex 28.94972563857222 10.360583223998992 35.300000000000004
    vertex 28.250914216795415 10.468582954979475 36.300000000000004
    vertex 28.94972563857223 10.560583223998991 36.300000000000004
  endloop
endfacet
facet normal 0.37537498530422336 0.9062353804970513 -0.19450207079416548
  outer loop
    vertex 29.64853706034903 10.468582954979478 36.300000000000004
    vertex 30.19972563857222 10.025646733460086 35.300000000000004
    vertex 29.596773251328518 10.275397789721662 35.300000000000004
  endloop
endfacet
facet normal 0.37537498530422336 0.9062353804970513 -0.19450207079416548
  outer loop
    vertex 30.19972563857222 10.025646733460086 35.300000000000004
    vertex 29.64853706034903 10.468582954979478 36.300000000000004
    vertex 30.29972563857222 10.198851814216976 36.300000000000004
  endloop
endfacet
facet normal 0.5971353686665947 0.7782019634671917 -0.19450207079416323
  outer loop
    vertex 30.19972563857222 10.025646733460086 35.300000000000004
    vertex 30.8589139477759 9.76977153320267 36.300000000000004
    vertex 30.71749259153859 9.628350176965357 35.300000000000004
  endloop
endfacet
facet normal 0.5971353686665947 0.7782019634671917 -0.19450207079416323
  outer loop
    vertex 30.8589139477759 9.76977153320267 36.300000000000004
    vertex 30.19972563857222 10.025646733460086 35.300000000000004
    vertex 30.29972563857222 10.198851814216976 36.300000000000004
  endloop
endfacet
facet normal 0.7782019634671913 0.5971353686665951 -0.19450207079416418
  outer loop
    vertex 30.71749259153859 9.628350176965357 35.300000000000004
    vertex 31.287994228790204 9.210583223998993 36.300000000000004
    vertex 31.114789148033317 9.110583223998988 35.300000000000004
  endloop
endfacet
facet normal 0.7782019634671913 0.5971353686665951 -0.19450207079416418
  outer loop
    vertex 31.287994228790204 9.210583223998993 36.300000000000004
    vertex 30.71749259153859 9.628350176965357 35.300000000000004
    vertex 30.8589139477759 9.76977153320267 36.300000000000004
  endloop
endfacet
facet normal 0.9062353804970517 0.37537498530422314 -0.19450207079416448
  outer loop
    vertex 31.114789148033317 9.110583223998988 35.300000000000004
    vertex 31.557725369552706 8.559394645775798 36.300000000000004
    vertex 31.364540204294897 8.507630836755292 35.300000000000004
  endloop
endfacet
facet normal 0.9062353804970517 0.37537498530422314 -0.19450207079416448
  outer loop
    vertex 31.557725369552706 8.559394645775798 36.300000000000004
    vertex 31.114789148033317 9.110583223998988 35.300000000000004
    vertex 31.287994228790204 9.210583223998993 36.300000000000004
  endloop
endfacet
facet normal 0.9725103539708155 0.12803341702986126 -0.19450207079416118
  outer loop
    vertex 31.449725638572225 7.86058322399899 35.300000000000004
    vertex 31.557725369552706 8.559394645775798 36.300000000000004
    vertex 31.649725638572217 7.86058322399899 36.300000000000004
  endloop
endfacet
facet normal 0.9725103539708155 0.12803341702986126 -0.19450207079416118
  outer loop
    vertex 31.557725369552706 8.559394645775798 36.300000000000004
    vertex 31.449725638572225 7.86058322399899 35.300000000000004
    vertex 31.364540204294897 8.507630836755292 35.300000000000004
  endloop
endfacet
facet normal 0.9725103539708161 -0.12803341702985888 -0.19450207079416026
  outer loop
    vertex 31.364540204294897 7.213535611242689 35.300000000000004
    vertex 31.649725638572217 7.86058322399899 36.300000000000004
    vertex 31.557725369552706 7.161771802222185 36.300000000000004
  endloop
endfacet
facet normal 0.9725103539708161 -0.12803341702985888 -0.19450207079416026
  outer loop
    vertex 31.649725638572217 7.86058322399899 36.300000000000004
    vertex 31.364540204294897 7.213535611242689 35.300000000000004
    vertex 31.449725638572225 7.86058322399899 35.300000000000004
  endloop
endfacet
facet normal 0.9062353804970511 -0.3753749853042265 -0.19450207079416165
  outer loop
    vertex 31.114789148033317 6.610583223998988 35.300000000000004
    vertex 31.557725369552706 7.161771802222185 36.300000000000004
    vertex 31.287994228790204 6.51058322399899 36.300000000000004
  endloop
endfacet
facet normal 0.9062353804970511 -0.3753749853042265 -0.19450207079416165
  outer loop
    vertex 31.557725369552706 7.161771802222185 36.300000000000004
    vertex 31.114789148033317 6.610583223998988 35.300000000000004
    vertex 31.364540204294897 7.213535611242689 35.300000000000004
  endloop
endfacet
facet normal 0.7782019634671952 -0.5971353686665904 -0.19450207079416254
  outer loop
    vertex 31.287994228790204 6.51058322399899 36.300000000000004
    vertex 30.71749259153859 6.092816271032621 35.300000000000004
    vertex 31.114789148033317 6.610583223998988 35.300000000000004
  endloop
endfacet
facet normal 0.7782019634671952 -0.5971353686665904 -0.19450207079416254
  outer loop
    vertex 30.71749259153859 6.092816271032621 35.300000000000004
    vertex 31.287994228790204 6.51058322399899 36.300000000000004
    vertex 30.858913947775907 5.951394914795312 36.300000000000004
  endloop
endfacet
facet normal 0.597135368666593 -0.7782019634671937 -0.19450207079416135
  outer loop
    vertex 30.858913947775907 5.951394914795312 36.300000000000004
    vertex 30.199725638572225 5.695519714537894 35.300000000000004
    vertex 30.71749259153859 6.092816271032621 35.300000000000004
  endloop
endfacet
facet normal 0.597135368666593 -0.7782019634671937 -0.19450207079416135
  outer loop
    vertex 30.199725638572225 5.695519714537894 35.300000000000004
    vertex 30.858913947775907 5.951394914795312 36.300000000000004
    vertex 30.29972563857222 5.522314633781003 36.300000000000004
  endloop
endfacet
facet normal -0.375374985304222 0.9062353804970527 -0.19450207079416262
  outer loop
    vertex 27.59972563857222 10.198851814216974 36.300000000000004
    vertex 28.302678025815922 10.275397789721662 35.300000000000004
    vertex 27.699725638572225 10.025646733460087 35.300000000000004
  endloop
endfacet
facet normal -0.375374985304222 0.9062353804970527 -0.19450207079416262
  outer loop
    vertex 28.302678025815922 10.275397789721662 35.300000000000004
    vertex 27.59972563857222 10.198851814216974 36.300000000000004
    vertex 28.250914216795415 10.468582954979475 36.300000000000004
  endloop
endfacet
facet normal -0.7782019634671955 0.5971353686665902 -0.1945020707941624
  outer loop
    vertex 26.611457048354236 9.210583223998984 36.300000000000004
    vertex 27.18195868560585 9.62835017696536 35.300000000000004
    vertex 26.78466212911113 9.11058322399899 35.300000000000004
  endloop
endfacet
facet normal -0.7782019634671955 0.5971353686665902 -0.1945020707941624
  outer loop
    vertex 27.18195868560585 9.62835017696536 35.300000000000004
    vertex 26.611457048354236 9.210583223998984 36.300000000000004
    vertex 27.040537329368536 9.769771533202663 36.300000000000004
  endloop
endfacet
facet normal -0.9062353804970532 0.37537498530422053 -0.19450207079416323
  outer loop
    vertex 26.341725907591734 8.559394645775793 36.300000000000004
    vertex 26.78466212911113 9.11058322399899 35.300000000000004
    vertex 26.534911072849553 8.507630836755295 35.300000000000004
  endloop
endfacet
facet normal -0.9062353804970532 0.37537498530422053 -0.19450207079416323
  outer loop
    vertex 26.78466212911113 9.11058322399899 35.300000000000004
    vertex 26.341725907591734 8.559394645775793 36.300000000000004
    vertex 26.611457048354236 9.210583223998984 36.300000000000004
  endloop
endfacet
facet normal -0.9725103539708153 0.1280334170298591 -0.1945020707941638
  outer loop
    vertex 26.249725638572222 7.860583223998986 36.300000000000004
    vertex 26.534911072849553 8.507630836755295 35.300000000000004
    vertex 26.44972563857223 7.860583223998993 35.300000000000004
  endloop
endfacet
facet normal -0.9725103539708153 0.1280334170298591 -0.1945020707941638
  outer loop
    vertex 26.534911072849553 8.507630836755295 35.300000000000004
    vertex 26.249725638572222 7.860583223998986 36.300000000000004
    vertex 26.341725907591734 8.559394645775793 36.300000000000004
  endloop
endfacet
facet normal -0.9725103539708155 -0.12803341702985718 -0.19450207079416354
  outer loop
    vertex 26.249725638572222 7.860583223998986 36.300000000000004
    vertex 26.53491107284955 7.213535611242689 35.300000000000004
    vertex 26.341725907591737 7.161771802222182 36.300000000000004
  endloop
endfacet
facet normal -0.9725103539708155 -0.12803341702985718 -0.19450207079416354
  outer loop
    vertex 26.53491107284955 7.213535611242689 35.300000000000004
    vertex 26.249725638572222 7.860583223998986 36.300000000000004
    vertex 26.44972563857223 7.860583223998993 35.300000000000004
  endloop
endfacet
facet normal -0.9062353804970517 -0.3753749853042231 -0.19450207079416443
  outer loop
    vertex 26.341725907591737 7.161771802222182 36.300000000000004
    vertex 26.78466212911113 6.610583223998989 35.300000000000004
    vertex 26.611457048354236 6.510583223998987 36.300000000000004
  endloop
endfacet
facet normal -0.9062353804970517 -0.3753749853042231 -0.19450207079416443
  outer loop
    vertex 26.78466212911113 6.610583223998989 35.300000000000004
    vertex 26.341725907591737 7.161771802222182 36.300000000000004
    vertex 26.53491107284955 7.213535611242689 35.300000000000004
  endloop
endfacet
facet normal -0.7782019634671911 -0.5971353686665954 -0.19450207079416387
  outer loop
    vertex 26.611457048354236 6.510583223998987 36.300000000000004
    vertex 27.181958685605856 6.092816271032621 35.300000000000004
    vertex 27.040537329368547 5.951394914795309 36.300000000000004
  endloop
endfacet
facet normal -0.7782019634671911 -0.5971353686665954 -0.19450207079416387
  outer loop
    vertex 27.181958685605856 6.092816271032621 35.300000000000004
    vertex 26.611457048354236 6.510583223998987 36.300000000000004
    vertex 26.78466212911113 6.610583223998989 35.300000000000004
  endloop
endfacet
facet normal -0.5971353686665944 -0.778201963467192 -0.19450207079416296
  outer loop
    vertex 27.040537329368547 5.951394914795309 36.300000000000004
    vertex 27.699725638572225 5.695519714537892 35.300000000000004
    vertex 27.59972563857222 5.522314633781005 36.300000000000004
  endloop
endfacet
facet normal -0.5971353686665944 -0.778201963467192 -0.19450207079416296
  outer loop
    vertex 27.699725638572225 5.695519714537892 35.300000000000004
    vertex 27.040537329368547 5.951394914795309 36.300000000000004
    vertex 27.181958685605856 6.092816271032621 35.300000000000004
  endloop
endfacet
facet normal -0.3753749853042236 -0.9062353804970515 -0.19450207079416468
  outer loop
    vertex 28.250914216795408 5.252583493018505 36.300000000000004
    vertex 27.699725638572225 5.695519714537892 35.300000000000004
    vertex 28.302678025815922 5.445768658276318 35.300000000000004
  endloop
endfacet
facet normal -0.3753749853042236 -0.9062353804970515 -0.19450207079416468
  outer loop
    vertex 27.699725638572225 5.695519714537892 35.300000000000004
    vertex 28.250914216795408 5.252583493018505 36.300000000000004
    vertex 27.59972563857222 5.522314633781005 36.300000000000004
  endloop
endfacet
facet normal -0.9914448603202733 -0.13052620022245973 0.0
  outer loop
    vertex -4.02804915009984 0.09601183615400442 22.299999999999997
    vertex -3.891752447542706 -0.9392643382735362 17.3
    vertex -3.891752447542706 -0.9392643382735362 22.299999999999997
  endloop
endfacet
facet normal -0.9914448603202733 -0.13052620022245973 0.0
  outer loop
    vertex -3.891752447542706 -0.9392643382735362 17.3
    vertex -4.02804915009984 0.09601183615400442 22.299999999999997
    vertex -4.02804915009984 0.09601183615400442 17.3
  endloop
endfacet
facet normal -0.9914448625894295 0.13052618298650778 0.0
  outer loop
    vertex -3.8917524655406517 1.1312880129510205 22.299999999999997
    vertex -4.02804915009984 0.09601183615400442 17.3
    vertex -4.02804915009984 0.09601183615400442 22.299999999999997
  endloop
endfacet
facet normal -0.9914448625894295 0.13052618298650778 0.0
  outer loop
    vertex -4.02804915009984 0.09601183615400442 17.3
    vertex -3.8917524655406517 1.1312880129510205 22.299999999999997
    vertex -3.8917524655406517 1.1312880129510205 17.3
  endloop
endfacet
facet normal -0.9238795365505077 0.38268342261354765 0.0
  outer loop
    vertex -3.492150787589335 2.096011832209027 22.299999999999997
    vertex -3.8917524655406517 1.1312880129510205 17.3
    vertex -3.8917524655406517 1.1312880129510205 22.299999999999997
  endloop
endfacet
facet normal -0.9238795365505077 0.38268342261354765 0.0
  outer loop
    vertex -3.8917524655406517 1.1312880129510205 17.3
    vertex -3.492150787589335 2.096011832209027 22.299999999999997
    vertex -3.492150787589335 2.096011832209027 17.3
  endloop
endfacet
facet normal -0.13052618544878145 0.991444862265265 0.0
  outer loop
    vertex 27.914449458162142 11.724286529155261 22.299999999999997
    vertex 28.949725693209817 11.860583223998988 17.3
    vertex 27.914449458162142 11.724286529155261 17.3
  endloop
endfacet
facet normal -0.13052618544878145 0.991444862265265 0.0
  outer loop
    vertex 28.949725693209817 11.860583223998988 17.3
    vertex 27.914449458162142 11.724286529155261 22.299999999999997
    vertex 28.949725693209817 11.860583223998988 22.299999999999997
  endloop
endfacet
facet normal 0.1305262051470229 0.9914448596719424 0.0
  outer loop
    vertex 28.949725693209817 11.860583223998988 22.299999999999997
    vertex 29.98500186696036 11.724286516299582 17.3
    vertex 28.949725693209817 11.860583223998988 17.3
  endloop
endfacet
facet normal 0.1305262051470229 0.9914448596719424 0.0
  outer loop
    vertex 29.98500186696036 11.724286516299582 17.3
    vertex 28.949725693209817 11.860583223998988 22.299999999999997
    vertex 29.98500186696036 11.724286516299582 22.299999999999997
  endloop
endfacet
facet normal -0.38268343867490806 0.9238795298976743 0.0
  outer loop
    vertex -2.028049197417378 3.560113458742338 22.299999999999997
    vertex -1.0633253305099184 3.959715176079653 17.3
    vertex -2.028049197417378 3.560113458742338 17.3
  endloop
endfacet
facet normal -0.38268343867490806 0.9238795298976743 0.0
  outer loop
    vertex -1.0633253305099184 3.959715176079653 17.3
    vertex -2.028049197417378 3.560113458742338 22.299999999999997
    vertex -1.0633253305099184 3.959715176079653 22.299999999999997
  endloop
endfacet
facet normal -0.2588190451025203 0.9659258262890684 0.0
  outer loop
    vertex -1.0633253305099184 3.959715176079653 22.299999999999997
    vertex 27.914449458162142 11.724286529155261 17.3
    vertex -1.0633253305099184 3.959715176079653 17.3
  endloop
endfacet
facet normal -0.2588190451025203 0.9659258262890684 0.0
  outer loop
    vertex 27.914449458162142 11.724286529155261 17.3
    vertex -1.0633253305099184 3.959715176079653 22.299999999999997
    vertex 27.914449458162142 11.724286529155261 22.299999999999997
  endloop
endfacet
facet normal 0.0 0.0 -1.0
  outer loop
    vertex -4.02804915009984 0.09601183615400442 17.3
    vertex -3.4921507528199602 -1.903988150584593 17.3
    vertex -3.891752447542706 -0.9392643382735362 17.3
  endloop
endfacet
facet normal 0.0 0.0 -1.0
  outer loop
    vertex -3.4921507528199602 -1.903988150584593 17.3
    vertex -4.02804915009984 0.09601183615400442 17.3
    vertex -3.8917524655406517 1.1312880129510205 17.3
  endloop
endfacet
facet normal 0.0 0.0 -1.0
  outer loop
    vertex -3.4921507528199602 -1.903988150584593 17.3
    vertex -3.8917524655406517 1.1312880129510205 17.3
    vertex -2.8564762607970793 -2.732415267871758 17.3
  endloop
endfacet
facet normal 0.0 0.0 -1.0
  outer loop
    vertex -2.8564762607970793 -2.732415267871758 17.3
    vertex -3.8917524655406517 1.1312880129510205 17.3
    vertex -3.492150787589335 2.096011832209027 17.3
  endloop
endfacet
facet normal 0.0 0.0 -1.0
  outer loop
    vertex -2.8564762607970793 -2.732415267871758 17.3
    vertex -3.492150787589335 2.096011832209027 17.3
    vertex -2.0280491371950595 -3.368089751664956 17.3
  endloop
endfacet
facet normal 0.0 0.0 -1.0
  outer loop
    vertex -2.0280491371950595 -3.368089751664956 17.3
    vertex -3.492150787589335 2.096011832209027 17.3
    vertex -2.8564763099683987 2.9244389605471968 17.3
  endloop
endfacet
facet normal 0.0 0.0 -1.0
  outer loop
    vertex -2.0280491371950595 -3.368089751664956 17.3
    vertex -2.8564763099683987 2.9244389605471968 17.3
    vertex -2.1293713090151263 -0.5705633226366043 17.3
  endloop
endfacet
facet normal 0.0 0.0 -1.0
  outer loop
    vertex -2.1293713090151263 -0.5705633226366043 17.3
    vertex -2.8564763099683987 2.9244389605471968 17.3
    vertex -0.5721498565206826 2.1266233517200073 17.3
  endloop
endfacet
facet normal 0.0 0.0 -1.0
  outer loop
    vertex -0.5721498565206826 2.1266233517200073 17.3
    vertex -2.8564763099683987 2.9244389605471968 17.3
    vertex -2.028049197417378 3.560113458742338 17.3
  endloop
endfacet
facet normal 0.0 0.0 -1.0
  outer loop
    vertex -0.5721498565206826 2.1266233517200073 17.3
    vertex -2.028049197417378 3.560113458742338 17.3
    vertex -1.0633253305099184 3.959715176079653 17.3
  endloop
endfacet
facet normal 0.0 0.0 -1.0
  outer loop
    vertex -0.5721498565206826 2.1266233517200073 17.3
    vertex -1.0633253305099184 3.959715176079653 17.3
    vertex 2.125036817835944 0.5694018992255481 17.3
  endloop
endfacet
facet normal 0.0 0.0 -1.0
  outer loop
    vertex 2.125036817835944 0.5694018992255481 17.3
    vertex -1.0633253305099184 3.959715176079653 17.3
    vertex 27.914449458162142 11.724286529155261 17.3
  endloop
endfacet
facet normal 0.0 0.0 -1.0
  outer loop
    vertex -2.1293713090151263 -0.5705633226366043 17.3
    vertex -1.06332532091431 -3.7676914368040286 17.3
    vertex -2.0280491371950595 -3.368089751664956 17.3
  endloop
endfacet
facet normal 0.0 0.0 -1.0
  outer loop
    vertex -1.06332532091431 -3.7676914368040286 17.3
    vertex -2.1293713090151263 -0.5705633226366043 17.3
    vertex 0.5678153653414778 -2.1277847751310683 17.3
  endloop
endfacet
facet normal 0.0 0.0 -1.0
  outer loop
    vertex -1.06332532091431 -3.7676914368040286 17.3
    vertex 0.5678153653414778 -2.1277847751310683 17.3
    vertex -0.02804914513278782 -3.9039881290766205 17.3
  endloop
endfacet
facet normal 0.0 0.0 -1.0
  outer loop
    vertex -0.02804914513278782 -3.9039881290766205 17.3
    vertex 0.5678153653414778 -2.1277847751310683 17.3
    vertex 1.0072270303102435 -3.7676914342328938 17.3
  endloop
endfacet
facet normal 0.0 0.0 -1.0
  outer loop
    vertex 1.0072270303102435 -3.7676914342328938 17.3
    vertex 0.5678153653414778 -2.1277847751310683 17.3
    vertex 2.125036817835944 0.5694018992255481 17.3
  endloop
endfacet
facet normal 0.0 0.0 -1.0
  outer loop
    vertex 1.0072270303102435 -3.7676914342328938 17.3
    vertex 2.125036817835944 0.5694018992255481 17.3
    vertex 29.985001818982305 3.996879918842716 17.3
  endloop
endfacet
facet normal 0.0 0.0 -1.0
  outer loop
    vertex 29.985001818982305 3.996879918842716 17.3
    vertex 2.125036817835944 0.5694018992255481 17.3
    vertex 27.914449458162142 11.724286529155261 17.3
  endloop
endfacet
facet normal 0.0 0.0 -1.0
  outer loop
    vertex 29.985001818982305 3.996879918842716 17.3
    vertex 27.914449458162142 11.724286529155261 17.3
    vertex 28.949725693209817 11.860583223998988 17.3
  endloop
endfacet
facet normal 0.0 0.0 -1.0
  outer loop
    vertex 29.985001818982305 3.996879918842716 17.3
    vertex 28.949725693209817 11.860583223998988 17.3
    vertex 30.949725634270624 4.396481606377709 17.3
  endloop
endfacet
facet normal 0.0 0.0 -1.0
  outer loop
    vertex 30.949725634270624 4.396481606377709 17.3
    vertex 28.949725693209817 11.860583223998988 17.3
    vertex 31.778152756293935 5.032156092228324 17.3
  endloop
endfacet
facet normal 0.0 0.0 -1.0
  outer loop
    vertex 31.778152756293935 5.032156092228324 17.3
    vertex 28.949725693209817 11.860583223998988 17.3
    vertex 29.98500186696036 11.724286516299582 17.3
  endloop
endfacet
facet normal 0.0 0.0 -1.0
  outer loop
    vertex 31.778152756293935 5.032156092228324 17.3
    vertex 29.98500186696036 11.724286516299582 17.3
    vertex 32.413827246259395 5.860583211094205 17.3
  endloop
endfacet
facet normal 0.0 0.0 -1.0
  outer loop
    vertex 32.413827246259395 5.860583211094205 17.3
    vertex 29.98500186696036 11.724286516299582 17.3
    vertex 30.949725677286576 11.324684816784998 17.3
  endloop
endfacet
facet normal 0.0 0.0 -1.0
  outer loop
    vertex 32.413827246259395 5.860583211094205 17.3
    vertex 30.949725677286576 11.324684816784998 17.3
    vertex 32.81342893858622 6.825307024397683 17.3
  endloop
endfacet
facet normal 0.0 0.0 -1.0
  outer loop
    vertex 32.81342893858622 6.825307024397683 17.3
    vertex 30.949725677286576 11.324684816784998 17.3
    vertex 31.778152791416318 10.689010320647277 17.3
  endloop
endfacet
facet normal 0.0 0.0 -1.0
  outer loop
    vertex 32.81342893858622 6.825307024397683 17.3
    vertex 31.778152791416318 10.689010320647277 17.3
    vertex 32.949725638572225 7.86058319916372 17.3
  endloop
endfacet
facet normal 0.0 0.0 -1.0
  outer loop
    vertex 32.949725638572225 7.86058319916372 17.3
    vertex 31.778152791416318 10.689010320647277 17.3
    vertex 32.41382727109466 9.860583193887825 17.3
  endloop
endfacet
facet normal 0.0 0.0 -1.0
  outer loop
    vertex 32.949725638572225 7.86058319916372 17.3
    vertex 32.41382727109466 9.860583193887825 17.3
    vertex 32.81342895144191 8.895859375622237 17.3
  endloop
endfacet
facet normal 0.7933533459607707 0.608761421620038 0.0
  outer loop
    vertex 31.778152791416318 10.689010320647277 17.3
    vertex 32.41382727109466 9.860583193887825 22.299999999999997
    vertex 32.41382727109466 9.860583193887825 17.3
  endloop
endfacet
facet normal 0.7933533459607707 0.608761421620038 0.0
  outer loop
    vertex 32.41382727109466 9.860583193887825 22.299999999999997
    vertex 31.778152791416318 10.689010320647277 17.3
    vertex 31.778152791416318 10.689010320647277 22.299999999999997
  endloop
endfacet
facet normal 0.9238795356001014 0.38268342490803153 0.0
  outer loop
    vertex 32.41382727109466 9.860583193887825 17.3
    vertex 32.81342895144191 8.895859375622237 22.299999999999997
    vertex 32.81342895144191 8.895859375622237 17.3
  endloop
endfacet
facet normal 0.9238795356001014 0.38268342490803153 0.0
  outer loop
    vertex 32.81342895144191 8.895859375622237 22.299999999999997
    vertex 32.41382727109466 9.860583193887825 17.3
    vertex 32.41382727109466 9.860583193887825 22.299999999999997
  endloop
endfacet
facet normal 0.9914448622652648 0.13052618544878408 0.0
  outer loop
    vertex 32.81342895144191 8.895859375622237 17.3
    vertex 32.949725638572225 7.86058319916372 22.299999999999997
    vertex 32.949725638572225 7.86058319916372 17.3
  endloop
endfacet
facet normal 0.9914448622652648 0.13052618544878408 0.0
  outer loop
    vertex 32.949725638572225 7.86058319916372 22.299999999999997
    vertex 32.81342895144191 8.895859375622237 17.3
    vertex 32.81342895144191 8.895859375622237 22.299999999999997
  endloop
endfacet
facet normal 0.9914448606444382 -0.13052619776018387 0.0
  outer loop
    vertex 32.949725638572225 7.86058319916372 17.3
    vertex 32.81342893858622 6.825307024397683 22.299999999999997
    vertex 32.81342893858622 6.825307024397683 17.3
  endloop
endfacet
facet normal 0.9914448606444382 -0.13052619776018387 0.0
  outer loop
    vertex 32.81342893858622 6.825307024397683 22.299999999999997
    vertex 32.949725638572225 7.86058319916372 17.3
    vertex 32.949725638572225 7.86058319916372 22.299999999999997
  endloop
endfacet
facet normal 0.9238795308480785 -0.3826834363804299 0.0
  outer loop
    vertex 32.81342893858622 6.825307024397683 17.3
    vertex 32.413827246259395 5.860583211094205 22.299999999999997
    vertex 32.413827246259395 5.860583211094205 17.3
  endloop
endfacet
facet normal 0.9238795308480785 -0.3826834363804299 0.0
  outer loop
    vertex 32.413827246259395 5.860583211094205 22.299999999999997
    vertex 32.81342893858622 6.825307024397683 17.3
    vertex 32.81342893858622 6.825307024397683 22.299999999999997
  endloop
endfacet
facet normal 0.7933533384013902 -0.6087614314716145 0.0
  outer loop
    vertex 32.413827246259395 5.860583211094205 22.299999999999997
    vertex 31.778152756293935 5.032156092228324 17.3
    vertex 32.413827246259395 5.860583211094205 17.3
  endloop
endfacet
facet normal 0.7933533384013902 -0.6087614314716145 0.0
  outer loop
    vertex 31.778152756293935 5.032156092228324 17.3
    vertex 32.413827246259395 5.860583211094205 22.299999999999997
    vertex 31.778152756293935 5.032156092228324 22.299999999999997
  endloop
endfacet
facet normal 0.6087614275309855 -0.7933533414251415 0.0
  outer loop
    vertex 31.778152756293935 5.032156092228324 22.299999999999997
    vertex 30.949725634270624 4.396481606377709 17.3
    vertex 31.778152756293935 5.032156092228324 17.3
  endloop
endfacet
facet normal 0.6087614275309855 -0.7933533414251415 0.0
  outer loop
    vertex 30.949725634270624 4.396481606377709 17.3
    vertex 31.778152756293935 5.032156092228324 22.299999999999997
    vertex 30.949725634270624 4.396481606377709 22.299999999999997
  endloop
endfacet
facet normal 0.3826834317914697 -0.9238795327488879 0.0
  outer loop
    vertex 30.949725634270624 4.396481606377709 22.299999999999997
    vertex 29.985001818982305 3.996879918842716 17.3
    vertex 30.949725634270624 4.396481606377709 17.3
  endloop
endfacet
facet normal 0.3826834317914697 -0.9238795327488879 0.0
  outer loop
    vertex 29.985001818982305 3.996879918842716 17.3
    vertex 30.949725634270624 4.396481606377709 22.299999999999997
    vertex 29.985001818982305 3.996879918842716 22.299999999999997
  endloop
endfacet
facet normal 0.2588190451025203 -0.9659258262890684 0.0
  outer loop
    vertex 29.985001818982305 3.996879918842716 22.299999999999997
    vertex 1.0072270303102435 -3.7676914342328938 17.3
    vertex 29.985001818982305 3.996879918842716 17.3
  endloop
endfacet
facet normal 0.2588190451025203 -0.9659258262890684 0.0
  outer loop
    vertex 1.0072270303102435 -3.7676914342328938 17.3
    vertex 29.985001818982305 3.996879918842716 22.299999999999997
    vertex 1.0072270303102435 -3.7676914342328938 22.299999999999997
  endloop
endfacet
facet normal 0.1305261928356208 -0.9914448612927692 0.0
  outer loop
    vertex 1.0072270303102435 -3.7676914342328938 22.299999999999997
    vertex -0.02804914513278782 -3.9039881290766205 17.3
    vertex 1.0072270303102435 -3.7676914342328938 17.3
  endloop
endfacet
facet normal 0.1305261928356208 -0.9914448612927692 0.0
  outer loop
    vertex -0.02804914513278782 -3.9039881290766205 17.3
    vertex 1.0072270303102435 -3.7676914342328938 22.299999999999997
    vertex -0.02804914513278782 -3.9039881290766205 22.299999999999997
  endloop
endfacet
facet normal -0.13052619037334323 -0.9914448616169342 0.0
  outer loop
    vertex -0.02804914513278782 -3.9039881290766205 22.299999999999997
    vertex -1.06332532091431 -3.7676914368040286 17.3
    vertex -0.02804914513278782 -3.9039881290766205 17.3
  endloop
endfacet
facet normal -0.13052619037334323 -0.9914448616169342 0.0
  outer loop
    vertex -1.06332532091431 -3.7676914368040286 17.3
    vertex -0.02804914513278782 -3.9039881290766205 22.299999999999997
    vertex -1.06332532091431 -3.7676914368040286 22.299999999999997
  endloop
endfacet
facet normal -0.38268342949698697 -0.9238795336992939 0.0
  outer loop
    vertex -1.06332532091431 -3.7676914368040286 22.299999999999997
    vertex -2.0280491371950595 -3.368089751664956 17.3
    vertex -1.06332532091431 -3.7676914368040286 17.3
  endloop
endfacet
facet normal -0.38268342949698697 -0.9238795336992939 0.0
  outer loop
    vertex -2.0280491371950595 -3.368089751664956 17.3
    vertex -1.06332532091431 -3.7676914368040286 22.299999999999997
    vertex -2.0280491371950595 -3.368089751664956 22.299999999999997
  endloop
endfacet
facet normal -0.6087614255606743 -0.7933533429370143 0.0
  outer loop
    vertex -2.8564762607970793 -2.732415267871758 22.299999999999997
    vertex -2.0280491371950595 -3.368089751664956 17.3
    vertex -2.0280491371950595 -3.368089751664956 22.299999999999997
  endloop
endfacet
facet normal -0.6087614255606743 -0.7933533429370143 0.0
  outer loop
    vertex -2.0280491371950595 -3.368089751664956 17.3
    vertex -2.8564762607970793 -2.732415267871758 22.299999999999997
    vertex -2.8564762607970793 -2.732415267871758 17.3
  endloop
endfacet
facet normal -0.9238795298976733 -0.3826834386749106 0.0
  outer loop
    vertex -3.891752447542706 -0.9392643382735362 22.299999999999997
    vertex -3.4921507528199602 -1.903988150584593 17.3
    vertex -3.4921507528199602 -1.903988150584593 22.299999999999997
  endloop
endfacet
facet normal -0.9238795298976733 -0.3826834386749106 0.0
  outer loop
    vertex -3.4921507528199602 -1.903988150584593 17.3
    vertex -3.891752447542706 -0.9392643382735362 22.299999999999997
    vertex -3.891752447542706 -0.9392643382735362 17.3
  endloop
endfacet
facet normal -0.7933533368895147 -0.6087614334419291 0.0
  outer loop
    vertex -3.4921507528199602 -1.903988150584593 22.299999999999997
    vertex -2.8564762607970793 -2.732415267871758 17.3
    vertex -2.8564762607970793 -2.732415267871758 22.299999999999997
  endloop
endfacet
facet normal -0.7933533368895147 -0.6087614334419291 0.0
  outer loop
    vertex -2.8564762607970793 -2.732415267871758 17.3
    vertex -3.4921507528199602 -1.903988150584593 22.299999999999997
    vertex -3.4921507528199602 -1.903988150584593 17.3
  endloop
endfacet
facet normal 0.0 0.0 1.0
  outer loop
    vertex -1.06332532091431 -3.7676914368040286 22.299999999999997
    vertex -2.1293713090151263 -0.5705633226366043 22.299999999999997
    vertex -2.0280491371950595 -3.368089751664956 22.299999999999997
  endloop
endfacet
facet normal 0.0 0.0 1.0
  outer loop
    vertex -2.1293713090151263 -0.5705633226366043 22.299999999999997
    vertex -1.06332532091431 -3.7676914368040286 22.299999999999997
    vertex 0.5678153653414778 -2.1277847751310683 22.299999999999997
  endloop
endfacet
facet normal 0.0 0.0 1.0
  outer loop
    vertex 0.5678153653414778 -2.1277847751310683 22.299999999999997
    vertex -1.06332532091431 -3.7676914368040286 22.299999999999997
    vertex -0.02804914513278782 -3.9039881290766205 22.299999999999997
  endloop
endfacet
facet normal 0.0 0.0 1.0
  outer loop
    vertex 0.5678153653414778 -2.1277847751310683 22.299999999999997
    vertex -0.02804914513278782 -3.9039881290766205 22.299999999999997
    vertex 1.0072270303102435 -3.7676914342328938 22.299999999999997
  endloop
endfacet
facet normal 0.0 0.0 1.0
  outer loop
    vertex 0.5678153653414778 -2.1277847751310683 22.299999999999997
    vertex 1.0072270303102435 -3.7676914342328938 22.299999999999997
    vertex 2.125036817835944 0.5694018992255481 22.299999999999997
  endloop
endfacet
facet normal 0.0 0.0 1.0
  outer loop
    vertex 2.125036817835944 0.5694018992255481 22.299999999999997
    vertex 1.0072270303102435 -3.7676914342328938 22.299999999999997
    vertex 29.985001818982305 3.996879918842716 22.299999999999997
  endloop
endfacet
facet normal 0.0 0.0 1.0
  outer loop
    vertex 2.125036817835944 0.5694018992255481 22.299999999999997
    vertex 29.985001818982305 3.996879918842716 22.299999999999997
    vertex 27.699725638572225 5.695519714537892 22.299999999999997
  endloop
endfacet
facet normal 0.0 0.0 1.0
  outer loop
    vertex 2.125036817835944 0.5694018992255481 22.299999999999997
    vertex 27.699725638572225 5.695519714537892 22.299999999999997
    vertex 27.181958685605856 6.092816271032621 22.299999999999997
  endloop
endfacet
facet normal 0.0 0.0 1.0
  outer loop
    vertex 2.125036817835944 0.5694018992255481 22.299999999999997
    vertex 27.181958685605856 6.092816271032621 22.299999999999997
    vertex 26.78466212911113 6.610583223998989 22.299999999999997
  endloop
endfacet
facet normal 0.0 0.0 1.0
  outer loop
    vertex 2.125036817835944 0.5694018992255481 22.299999999999997
    vertex 26.78466212911113 6.610583223998989 22.299999999999997
    vertex 26.53491107284955 7.213535611242689 22.299999999999997
  endloop
endfacet
facet normal 0.0 0.0 1.0
  outer loop
    vertex 27.699725638572225 5.695519714537892 22.299999999999997
    vertex 29.985001818982305 3.996879918842716 22.299999999999997
    vertex 28.302678025815922 5.445768658276318 22.299999999999997
  endloop
endfacet
facet normal 0.0 0.0 1.0
  outer loop
    vertex 28.302678025815922 5.445768658276318 22.299999999999997
    vertex 29.985001818982305 3.996879918842716 22.299999999999997
    vertex 28.94972563857222 5.360583223998989 22.299999999999997
  endloop
endfacet
facet normal 0.0 0.0 1.0
  outer loop
    vertex 28.94972563857222 5.360583223998989 22.299999999999997
    vertex 29.985001818982305 3.996879918842716 22.299999999999997
    vertex 29.596773251328525 5.445768658276317 22.299999999999997
  endloop
endfacet
facet normal 0.0 0.0 1.0
  outer loop
    vertex 29.596773251328525 5.445768658276317 22.299999999999997
    vertex 29.985001818982305 3.996879918842716 22.299999999999997
    vertex 30.949725634270624 4.396481606377709 22.299999999999997
  endloop
endfacet
facet normal 0.0 0.0 1.0
  outer loop
    vertex 29.596773251328525 5.445768658276317 22.299999999999997
    vertex 30.949725634270624 4.396481606377709 22.299999999999997
    vertex 30.199725638572225 5.695519714537894 22.299999999999997
  endloop
endfacet
facet normal 0.0 0.0 1.0
  outer loop
    vertex 30.199725638572225 5.695519714537894 22.299999999999997
    vertex 30.949725634270624 4.396481606377709 22.299999999999997
    vertex 30.71749259153859 6.092816271032621 22.299999999999997
  endloop
endfacet
facet normal 0.0 0.0 1.0
  outer loop
    vertex 30.71749259153859 6.092816271032621 22.299999999999997
    vertex 30.949725634270624 4.396481606377709 22.299999999999997
    vertex 31.778152756293935 5.032156092228324 22.299999999999997
  endloop
endfacet
facet normal 0.0 0.0 1.0
  outer loop
    vertex 30.71749259153859 6.092816271032621 22.299999999999997
    vertex 31.778152756293935 5.032156092228324 22.299999999999997
    vertex 31.114789148033317 6.610583223998988 22.299999999999997
  endloop
endfacet
facet normal 0.0 0.0 1.0
  outer loop
    vertex 31.114789148033317 6.610583223998988 22.299999999999997
    vertex 31.778152756293935 5.032156092228324 22.299999999999997
    vertex 31.364540204294897 7.213535611242689 22.299999999999997
  endloop
endfacet
facet normal 0.0 0.0 1.0
  outer loop
    vertex 31.364540204294897 7.213535611242689 22.299999999999997
    vertex 31.778152756293935 5.032156092228324 22.299999999999997
    vertex 32.413827246259395 5.860583211094205 22.299999999999997
  endloop
endfacet
facet normal 0.0 0.0 1.0
  outer loop
    vertex 31.364540204294897 7.213535611242689 22.299999999999997
    vertex 32.413827246259395 5.860583211094205 22.299999999999997
    vertex 31.449725638572225 7.86058322399899 22.299999999999997
  endloop
endfacet
facet normal 0.0 0.0 1.0
  outer loop
    vertex 31.449725638572225 7.86058322399899 22.299999999999997
    vertex 32.413827246259395 5.860583211094205 22.299999999999997
    vertex 31.364540204294897 8.507630836755292 22.299999999999997
  endloop
endfacet
facet normal 0.0 0.0 1.0
  outer loop
    vertex -3.4921507528199602 -1.903988150584593 22.299999999999997
    vertex -4.02804915009984 0.09601183615400442 22.299999999999997
    vertex -3.891752447542706 -0.9392643382735362 22.299999999999997
  endloop
endfacet
facet normal 0.0 0.0 1.0
  outer loop
    vertex -4.02804915009984 0.09601183615400442 22.299999999999997
    vertex -3.4921507528199602 -1.903988150584593 22.299999999999997
    vertex -3.8917524655406517 1.1312880129510205 22.299999999999997
  endloop
endfacet
facet normal 0.0 0.0 1.0
  outer loop
    vertex -3.8917524655406517 1.1312880129510205 22.299999999999997
    vertex -3.4921507528199602 -1.903988150584593 22.299999999999997
    vertex -2.8564762607970793 -2.732415267871758 22.299999999999997
  endloop
endfacet
facet normal 0.0 0.0 1.0
  outer loop
    vertex -3.8917524655406517 1.1312880129510205 22.299999999999997
    vertex -2.8564762607970793 -2.732415267871758 22.299999999999997
    vertex -3.492150787589335 2.096011832209027 22.299999999999997
  endloop
endfacet
facet normal 0.0 0.0 1.0
  outer loop
    vertex -3.492150787589335 2.096011832209027 22.299999999999997
    vertex -2.8564762607970793 -2.732415267871758 22.299999999999997
    vertex -2.0280491371950595 -3.368089751664956 22.299999999999997
  endloop
endfacet
facet normal 0.0 0.0 1.0
  outer loop
    vertex -3.492150787589335 2.096011832209027 22.299999999999997
    vertex -2.0280491371950595 -3.368089751664956 22.299999999999997
    vertex -2.8564763099683987 2.9244389605471968 22.299999999999997
  endloop
endfacet
facet normal 0.0 0.0 1.0
  outer loop
    vertex -2.8564763099683987 2.9244389605471968 22.299999999999997
    vertex -2.0280491371950595 -3.368089751664956 22.299999999999997
    vertex -2.1293713090151263 -0.5705633226366043 22.299999999999997
  endloop
endfacet
facet normal 0.0 0.0 1.0
  outer loop
    vertex -2.8564763099683987 2.9244389605471968 22.299999999999997
    vertex -2.1293713090151263 -0.5705633226366043 22.299999999999997
    vertex -0.5721498565206826 2.1266233517200073 22.299999999999997
  endloop
endfacet
facet normal 0.0 0.0 1.0
  outer loop
    vertex -2.8564763099683987 2.9244389605471968 22.299999999999997
    vertex -0.5721498565206826 2.1266233517200073 22.299999999999997
    vertex -2.028049197417378 3.560113458742338 22.299999999999997
  endloop
endfacet
facet normal 0.0 0.0 1.0
  outer loop
    vertex -2.028049197417378 3.560113458742338 22.299999999999997
    vertex -0.5721498565206826 2.1266233517200073 22.299999999999997
    vertex -1.0633253305099184 3.959715176079653 22.299999999999997
  endloop
endfacet
facet normal 0.0 0.0 1.0
  outer loop
    vertex -1.0633253305099184 3.959715176079653 22.299999999999997
    vertex -0.5721498565206826 2.1266233517200073 22.299999999999997
    vertex 2.125036817835944 0.5694018992255481 22.299999999999997
  endloop
endfacet
facet normal 0.0 0.0 1.0
  outer loop
    vertex -1.0633253305099184 3.959715176079653 22.299999999999997
    vertex 2.125036817835944 0.5694018992255481 22.299999999999997
    vertex 27.914449458162142 11.724286529155261 22.299999999999997
  endloop
endfacet
facet normal 0.0 0.0 1.0
  outer loop
    vertex 27.914449458162142 11.724286529155261 22.299999999999997
    vertex 2.125036817835944 0.5694018992255481 22.299999999999997
    vertex 26.78466212911113 9.11058322399899 22.299999999999997
  endloop
endfacet
facet normal 0.0 0.0 1.0
  outer loop
    vertex 26.78466212911113 9.11058322399899 22.299999999999997
    vertex 2.125036817835944 0.5694018992255481 22.299999999999997
    vertex 26.534911072849553 8.507630836755295 22.299999999999997
  endloop
endfacet
facet normal 0.0 0.0 1.0
  outer loop
    vertex 26.534911072849553 8.507630836755295 22.299999999999997
    vertex 2.125036817835944 0.5694018992255481 22.299999999999997
    vertex 26.44972563857223 7.860583223998993 22.299999999999997
  endloop
endfacet
facet normal 0.0 0.0 1.0
  outer loop
    vertex 26.44972563857223 7.860583223998993 22.299999999999997
    vertex 2.125036817835944 0.5694018992255481 22.299999999999997
    vertex 26.53491107284955 7.213535611242689 22.299999999999997
  endloop
endfacet
facet normal 0.0 0.0 1.0
  outer loop
    vertex 27.914449458162142 11.724286529155261 22.299999999999997
    vertex 26.78466212911113 9.11058322399899 22.299999999999997
    vertex 27.18195868560585 9.62835017696536 22.299999999999997
  endloop
endfacet
facet normal 0.0 0.0 1.0
  outer loop
    vertex 27.914449458162142 11.724286529155261 22.299999999999997
    vertex 27.18195868560585 9.62835017696536 22.299999999999997
    vertex 27.699725638572225 10.025646733460087 22.299999999999997
  endloop
endfacet
facet normal 0.0 0.0 1.0
  outer loop
    vertex 27.914449458162142 11.724286529155261 22.299999999999997
    vertex 27.699725638572225 10.025646733460087 22.299999999999997
    vertex 28.302678025815922 10.275397789721662 22.299999999999997
  endloop
endfacet
facet normal 0.0 0.0 1.0
  outer loop
    vertex 27.914449458162142 11.724286529155261 22.299999999999997
    vertex 28.302678025815922 10.275397789721662 22.299999999999997
    vertex 28.94972563857222 10.360583223998992 22.299999999999997
  endloop
endfacet
facet normal 0.0 0.0 1.0
  outer loop
    vertex 27.914449458162142 11.724286529155261 22.299999999999997
    vertex 28.94972563857222 10.360583223998992 22.299999999999997
    vertex 28.949725693209817 11.860583223998988 22.299999999999997
  endloop
endfacet
facet normal 0.0 0.0 1.0
  outer loop
    vertex 28.949725693209817 11.860583223998988 22.299999999999997
    vertex 28.94972563857222 10.360583223998992 22.299999999999997
    vertex 29.596773251328518 10.275397789721662 22.299999999999997
  endloop
endfacet
facet normal 0.0 0.0 1.0
  outer loop
    vertex 28.949725693209817 11.860583223998988 22.299999999999997
    vertex 29.596773251328518 10.275397789721662 22.299999999999997
    vertex 29.98500186696036 11.724286516299582 22.299999999999997
  endloop
endfacet
facet normal 0.0 0.0 1.0
  outer loop
    vertex 29.98500186696036 11.724286516299582 22.299999999999997
    vertex 29.596773251328518 10.275397789721662 22.299999999999997
    vertex 30.19972563857222 10.025646733460086 22.299999999999997
  endloop
endfacet
facet normal 0.0 0.0 1.0
  outer loop
    vertex 29.98500186696036 11.724286516299582 22.299999999999997
    vertex 30.19972563857222 10.025646733460086 22.299999999999997
    vertex 30.71749259153859 9.628350176965357 22.299999999999997
  endloop
endfacet
facet normal 0.0 0.0 1.0
  outer loop
    vertex 29.98500186696036 11.724286516299582 22.299999999999997
    vertex 30.71749259153859 9.628350176965357 22.299999999999997
    vertex 30.949725677286576 11.324684816784998 22.299999999999997
  endloop
endfacet
facet normal 0.0 0.0 1.0
  outer loop
    vertex 30.949725677286576 11.324684816784998 22.299999999999997
    vertex 30.71749259153859 9.628350176965357 22.299999999999997
    vertex 31.114789148033317 9.110583223998988 22.299999999999997
  endloop
endfacet
facet normal 0.0 0.0 1.0
  outer loop
    vertex 30.949725677286576 11.324684816784998 22.299999999999997
    vertex 31.114789148033317 9.110583223998988 22.299999999999997
    vertex 31.364540204294897 8.507630836755292 22.299999999999997
  endloop
endfacet
facet normal 0.0 0.0 1.0
  outer loop
    vertex 30.949725677286576 11.324684816784998 22.299999999999997
    vertex 31.364540204294897 8.507630836755292 22.299999999999997
    vertex 32.413827246259395 5.860583211094205 22.299999999999997
  endloop
endfacet
facet normal 0.0 0.0 1.0
  outer loop
    vertex 30.949725677286576 11.324684816784998 22.299999999999997
    vertex 32.413827246259395 5.860583211094205 22.299999999999997
    vertex 32.81342893858622 6.825307024397683 22.299999999999997
  endloop
endfacet
facet normal 0.0 0.0 1.0
  outer loop
    vertex 30.949725677286576 11.324684816784998 22.299999999999997
    vertex 32.81342893858622 6.825307024397683 22.299999999999997
    vertex 31.778152791416318 10.689010320647277 22.299999999999997
  endloop
endfacet
facet normal 0.0 0.0 1.0
  outer loop
    vertex 31.778152791416318 10.689010320647277 22.299999999999997
    vertex 32.81342893858622 6.825307024397683 22.299999999999997
    vertex 32.949725638572225 7.86058319916372 22.299999999999997
  endloop
endfacet
facet normal 0.0 0.0 1.0
  outer loop
    vertex 31.778152791416318 10.689010320647277 22.299999999999997
    vertex 32.949725638572225 7.86058319916372 22.299999999999997
    vertex 32.41382727109466 9.860583193887825 22.299999999999997
  endloop
endfacet
facet normal 0.0 0.0 1.0
  outer loop
    vertex 32.41382727109466 9.860583193887825 22.299999999999997
    vertex 32.949725638572225 7.86058319916372 22.299999999999997
    vertex 32.81342895144191 8.895859375622237 22.299999999999997
  endloop
endfacet
endsolid ADS Analoger Stepper Driver
